<?xml version="1.0" encoding="UTF-8" standalone="no"?>
<!-- Created with Inkscape (http://www.inkscape.org/) -->

<svg
   width="100"
   height="100"
   viewBox="0 0 26.458333 26.458333"
   version="1.1"
   id="svg5"
   xml:space="preserve"
   inkscape:version="1.2.2 (732a01da63, 2022-12-09)"
   sodipodi:docname="done.svg"
   xmlns:inkscape="http://www.inkscape.org/namespaces/inkscape"
   xmlns:sodipodi="http://sodipodi.sourceforge.net/DTD/sodipodi-0.dtd"
   xmlns="http://www.w3.org/2000/svg"
   xmlns:svg="http://www.w3.org/2000/svg"><sodipodi:namedview
     id="namedview7"
     pagecolor="#505050"
     bordercolor="#ffffff"
     borderopacity="1"
     inkscape:showpageshadow="0"
     inkscape:pageopacity="0"
     inkscape:pagecheckerboard="1"
     inkscape:deskcolor="#505050"
     inkscape:document-units="mm"
     showgrid="false"
     inkscape:zoom="1.8101934"
     inkscape:cx="-0.55242717"
     inkscape:cy="53.033009"
     inkscape:window-width="1920"
     inkscape:window-height="1017"
     inkscape:window-x="-8"
     inkscape:window-y="-8"
     inkscape:window-maximized="1"
     inkscape:current-layer="layer1" /><defs
     id="defs2" /><g
     inkscape:label="Шар 1"
     inkscape:groupmode="layer"
     id="layer1"><path
       style="fill:#ffffff;stroke-width:0.04878"
       d="m 12.123385,26.447724 c -0.0677,-0.01151 -0.37763,-0.05428 -0.68884,-0.09504 C 7.7956245,25.876065 4.4167245,23.780687 2.3395345,20.712547 1.4703245,19.428653 0.72813454,17.796053 0.36604454,16.371387 0.06629454,15.192056 4.542516e-6,14.626661 4.542516e-6,13.249568 c 0,-1.084915 0.015399997484,-1.346944 0.112019997484,-1.910267 0.5257,-3.0638856 1.91393996,-5.7353006 4.02106996,-7.7378366 2.03843,-1.937237 4.53549,-3.11893703 7.4244605,-3.51351903 0.86081,-0.117573 2.4129,-0.117211 3.29659,7.31e-4 2.41199,0.322015 4.55204,1.21196203 6.48526,2.69690103 0.76532,0.587858 1.87926,1.737684 2.46961,2.54916 l 0.14996,0.206657 -6.3592,6.1444996 c -3.47713,3.359735 -6.17908,6.00349 -6.2061,6.00349 -0.027,0 -1.21033,-1.112206 -2.7663205,-2.654198 l -2.83151,-2.80603 -0.41256,0.391004 c -0.16483,0.156211 -0.36007,0.33806 -0.36007,0.357432 0,0.05915 6.2286805,6.44531 6.2731805,6.429755 0.0229,-0.008 3.23215,-2.975913 6.80354,-6.480287 3.57139,-3.5043746 6.41143,-6.4891096 6.43594,-6.4891096 0.0464,0 0.42108,0.668703 0.63824,1.129139 0.36012,0.763563 0.70349,1.733791 0.92577,2.6158956 0.46296,1.837153 0.4782,3.996522 0.0414,5.87045 -1.17927,5.059812 -4.94138,8.882351 -9.9095,10.068672 -1.00467,0.239902 -1.65295,0.315161 -2.85377,0.331299 -0.62242,0.0084 -1.18702,0.0058 -1.25468,-0.0057 z"
       id="path302"
       sodipodi:nodetypes="csssscsscsscssscsssssssssscc" /></g></svg>
