<?xml version="1.0" encoding="UTF-8" standalone="no"?>
<!-- Created with Inkscape (http://www.inkscape.org/) -->

<svg
   xmlns:dc="http://purl.org/dc/elements/1.1/"
   xmlns:cc="http://creativecommons.org/ns#"
   xmlns:rdf="http://www.w3.org/1999/02/22-rdf-syntax-ns#"
   xmlns:svg="http://www.w3.org/2000/svg"
   xmlns="http://www.w3.org/2000/svg"
   xmlns:sodipodi="http://sodipodi.sourceforge.net/DTD/sodipodi-0.dtd"
   xmlns:inkscape="http://www.inkscape.org/namespaces/inkscape"
   width="164"
   height="41"
   viewBox="0 0 43.391664 10.847917"
   version="1.1"
   id="svg8"
   inkscape:version="0.92.4 (5da689c313, 2019-01-14)"
   sodipodi:docname="share.svg">
  <defs
     id="defs2" />
  <sodipodi:namedview
     id="base"
     pagecolor="#ffffff"
     bordercolor="#666666"
     borderopacity="1.0"
     inkscape:pageopacity="0.0"
     inkscape:pageshadow="2"
     inkscape:zoom="3.959798"
     inkscape:cx="53.947776"
     inkscape:cy="43.459363"
     inkscape:document-units="mm"
     inkscape:current-layer="layer1"
     showgrid="false"
     units="px"
     inkscape:window-width="1920"
     inkscape:window-height="1017"
     inkscape:window-x="-8"
     inkscape:window-y="-8"
     inkscape:window-maximized="1"
     showguides="true"
     inkscape:guide-bbox="true" />
  <metadata
     id="metadata5">
    <rdf:RDF>
      <cc:Work
         rdf:about="">
        <dc:format>image/svg+xml</dc:format>
        <dc:type
           rdf:resource="http://purl.org/dc/dcmitype/StillImage" />
        <dc:title></dc:title>
      </cc:Work>
    </rdf:RDF>
  </metadata>
  <g
     inkscape:label="Layer 1"
     inkscape:groupmode="layer"
     id="layer1"
     transform="translate(0,-286.15206)">
    <g
       id="g1030"
       transform="translate(21.689378)">
      <path
         sodipodi:nodetypes="ccccccccsccccccccccsccccccccccccccccccccccsccscc"
         inkscape:connector-curvature="0"
         id="path888"
         d="m 4.3820876,293.68823 c -0.01848,-0.11883 -0.02495,-0.28394 -0.01675,-0.42732 0.01346,-0.23475 0.02485,-0.30601 0.09745,-0.60827 0.02165,-0.0902 0.04845,-0.20604 0.05958,-0.25754 0.0248,-0.11487 0.05478,-0.24386 0.09253,-0.39807 0.01577,-0.0644 0.03757,-0.15394 0.04846,-0.199 0.01087,-0.045 0.03718,-0.15101 0.05839,-0.23541 0.03544,-0.14093 0.03553,-0.16075 0.0012,-0.24286 -0.02576,-0.0617 -0.03735,-0.16217 -0.03735,-0.32367 0,-0.21591 0.0057,-0.2461 0.07445,-0.38548 0.08491,-0.17247 0.171283,-0.24875 0.329626,-0.2911 0.09017,-0.0241 0.126784,-0.0239 0.198596,0.001 0.125475,0.0442 0.180332,0.10293 0.228583,0.24491 0.04051,0.11915 0.04056,0.13211 0.0012,0.30949 -0.02256,0.10187 -0.04947,0.20621 -0.0598,0.23196 -0.01028,0.0258 -0.03647,0.11002 -0.05811,0.18731 -0.02164,0.0773 -0.05125,0.17175 -0.06582,0.20997 -0.01457,0.0383 -0.0269,0.14358 -0.02739,0.23414 -7.98e-4,0.13594 0.0086,0.17804 0.05374,0.24129 0.07864,0.11025 0.208606,0.16923 0.372978,0.16923 0.263245,0 0.498132,-0.17933 0.644084,-0.49169 0.117581,-0.25166 0.116908,-0.24923 0.172911,-0.63219 0.03771,-0.25785 0.02201,-0.49008 -0.04586,-0.67901 -0.0959,-0.26691 -0.318498,-0.4668 -0.642238,-0.5767 -0.149114,-0.0507 -0.658484,-0.0512 -0.804571,-7.3e-4 -0.366832,0.1263 -0.624957,0.3423 -0.774186,0.64783 -0.09012,0.18452 -0.113989,0.28206 -0.129421,0.5288 -0.01466,0.23469 0.04208,0.43236 0.161969,0.56412 0.04722,0.052 0.04834,0.12283 0.0052,0.32873 -0.04956,0.23682 -0.43828,0.005 -0.576746,-0.34459 -0.147218,-0.37123 -0.153839,-0.64128 -0.02555,-1.04194 0.155906,-0.48688 0.58616,-0.90237 1.113786,-1.07556 0.429638,-0.14103 0.933062,-0.14171 1.339255,-10e-4 0.219311,0.0755 0.47906,0.24483 0.63299,0.41251 0.278795,0.30369 0.416421,0.64826 0.414268,1.03712 -0.001,0.18428 -0.04601,0.52098 -0.0777,0.58152 -0.0117,0.0224 -0.02125,0.0592 -0.02121,0.0819 0,0.0713 -0.121305,0.33906 -0.227979,0.50291 -0.178459,0.27405 -0.44442,0.47616 -0.761129,0.57836 -0.106284,0.0343 -0.555041,0.0394 -0.617096,0.007 -0.02451,-0.0129 -0.0846,-0.0429 -0.133522,-0.0668 -0.04894,-0.024 -0.116754,-0.0726 -0.150719,-0.10801 -0.03397,-0.0355 -0.07382,-0.0644 -0.08856,-0.0644 -0.02532,0 -0.0597,0.10458 -0.10385,0.31608 -0.02513,0.12042 -0.08059,0.31955 -0.130405,0.46828 -0.08121,0.24249 -0.398129,0.76096 -0.465145,0.76096 -0.01975,0 -0.04057,-0.0668 -0.06028,-0.19366 z"
         style="fill:#2c87ce;fill-opacity:0.99215686;stroke-width:0.02341419" />
      <circle
         r="5.1590552"
         cy="291.57602"
         cx="5.4239583"
         id="path914-1-8"
         style="opacity:0.98999999;fill:none;fill-opacity:1;stroke:#2c87ce;stroke-width:0.52980602;stroke-linecap:round;stroke-linejoin:round;stroke-miterlimit:4;stroke-dasharray:none;stroke-opacity:1" />
    </g>
    <g
       id="layer1-0"
       inkscape:label="Layer 1"
       transform="translate(-0.00488076)">
      <path
         sodipodi:nodetypes="cccccccccccccccccccccccccccccc"
         inkscape:connector-curvature="0"
         id="path888-2"
         d="m 4.9153968,293.56294 c -0.0028,-0.004 -0.01074,-0.44894 -0.01754,-0.98982 l -0.01236,-0.98339 -0.1938054,-0.007 -0.193802,-0.007 0.0064,-0.3327 0.0064,-0.33269 0.189561,-0.007 0.1895584,-0.007 0.01474,-0.34121 c 0.01955,-0.45262 0.06442,-0.59467 0.238475,-0.75511 0.181152,-0.16699 0.26879,-0.19167 0.735039,-0.20701 0.377952,-0.0125 0.409675,-0.0106 0.439015,0.0299 0.04182,0.0572 0.04479,0.57372 0.0034,0.61496 -0.01606,0.0161 -0.09373,0.0281 -0.181457,0.0282 -0.379759,7.3e-4 -0.426976,0.0457 -0.417134,0.39779 l 0.0061,0.22244 0.292679,0.0118 0.292677,0.0118 0.0067,0.14048 c 0.0037,0.0773 -0.0076,0.22478 -0.02495,0.32781 l -0.03168,0.18731 -0.220898,0.006 c -0.121494,0.002 -0.244488,0.0118 -0.27332,0.018 l -0.05243,0.012 -0.006,0.97717 -0.006,0.97716 -0.392189,0.007 c -0.215701,0.004 -0.394531,0.004 -0.397396,0 z"
         style="fill:#2c87ce;fill-opacity:0.99215686;stroke-width:0.02341419" />
      <circle
         r="5.1590552"
         cy="291.57602"
         cx="5.4239583"
         id="path914-1-8-2"
         style="opacity:0.98999999;fill:none;fill-opacity:1;stroke:#2c87ce;stroke-width:0.52980602;stroke-linecap:round;stroke-linejoin:round;stroke-miterlimit:4;stroke-dasharray:none;stroke-opacity:1" />
    </g>
    <g
       id="layer1-6"
       inkscape:label="Layer 1"
       transform="translate(10.842248)">
      <g
         id="g1022">
        <path
           style="fill:#2c87ce;fill-opacity:0.99215686;stroke-width:0.02341419"
           d="m 4.5081706,293.2055 c -0.2575976,-0.0182 -0.5509343,-0.0886 -0.7843762,-0.18827 -0.2433588,-0.10387 -0.288357,-0.15301 -0.1503868,-0.16428 0.3255999,-0.0266 0.5342171,-0.0799 0.7750067,-0.19815 0.1987871,-0.0976 0.2253757,-0.14066 0.1053802,-0.1706 -0.19359,-0.0483 -0.4176122,-0.20657 -0.5227462,-0.36935 -0.084006,-0.13007 -0.066095,-0.18117 0.063498,-0.18117 0.1073701,0 0.1200539,-0.037 0.027723,-0.0808 -0.2107253,-0.1 -0.375984,-0.31177 -0.4628123,-0.59309 -0.04318,-0.13989 -0.012715,-0.16596 0.1301219,-0.11144 0.1446094,0.0552 0.1785634,0.0221 0.08595,-0.084 -0.1025499,-0.11746 -0.1840935,-0.29648 -0.2020468,-0.44364 -0.019513,-0.15995 0.018054,-0.41094 0.070135,-0.46848 0.036689,-0.0405 0.045727,-0.0356 0.1939643,0.10694 0.2352567,0.22619 0.3279835,0.2925 0.6705988,0.47958 0.1345255,0.0734 0.6302402,0.21148 0.7595132,0.21148 h 0.06813 l 0.01113,-0.18145 c 0.01542,-0.25112 0.03044,-0.30362 0.128874,-0.45016 0.163003,-0.24268 0.408475,-0.3752 0.695025,-0.3752 0.133296,0 0.184487,0.013 0.328771,0.0833 0.09399,0.0459 0.183502,0.0986 0.198911,0.11711 0.05051,0.0609 0.179303,0.039 0.435572,-0.0742 0.04058,-0.018 0.0801,-0.0326 0.0878,-0.0326 0.03903,0 0.0032,0.0945 -0.07437,0.1966 -0.04797,0.0631 -0.09739,0.12841 -0.109806,0.14521 -0.01242,0.0168 -0.01609,0.0371 -0.0082,0.045 0.01293,0.013 0.175487,-0.0279 0.282452,-0.0709 0.079,-0.0318 0.04038,0.0358 -0.117074,0.20504 -0.201709,0.21674 -0.216578,0.2453 -0.216578,0.4157 0,0.12686 -0.01579,0.21123 -0.09857,0.5268 -0.102881,0.39218 -0.309902,0.74108 -0.63049,1.06263 -0.168295,0.1688 -0.521638,0.42415 -0.586897,0.42415 -0.01799,0 -0.04271,0.008 -0.05495,0.0195 -0.02466,0.0216 -0.182461,0.078 -0.326626,0.11652 -0.226137,0.0605 -0.567005,0.0967 -0.7726695,0.0821 z"
           id="path888-6"
           inkscape:connector-curvature="0"
           sodipodi:nodetypes="ccccccsccccccccscccscccscccccscsscccc" />
        <circle
           style="opacity:0.98999999;fill:none;fill-opacity:1;stroke:#2c87ce;stroke-width:0.52980602;stroke-linecap:round;stroke-linejoin:round;stroke-miterlimit:4;stroke-dasharray:none;stroke-opacity:1"
           id="path914-1-8-24"
           cx="5.4239583"
           cy="291.57602"
           r="5.1590552" />
      </g>
    </g>
    <g
       id="layer1-5"
       inkscape:label="Layer 1"
       transform="translate(32.536507)">
      <g
         id="g1026">
        <path
           style="fill:#2c87ce;fill-opacity:0.99215686;stroke-width:0.02341419"
           d="m 5.115393,293.7404 c -0.05795,-0.005 -0.279214,-0.0182 -0.491697,-0.0304 -0.778909,-0.045 -0.84285,-0.0793 -0.916788,-0.49167 -0.04235,-0.23624 -0.04206,-1.05404 4.5e-4,-1.28779 0.05469,-0.30056 0.114651,-0.39082 0.28403,-0.42752 0.599845,-0.13001 2.31307,-0.13286 2.824398,-0.005 0.212417,0.0533 0.24467,0.0967 0.312661,0.42052 0.084,0.40012 0.04148,1.3362 -0.07118,1.56755 -0.07618,0.15645 -0.196673,0.18423 -1.017029,0.23459 -0.54411,0.0333 -0.702694,0.0367 -0.92486,0.0195 z m 1.57773,-0.46099 c 0.110786,-0.0463 0.182942,-0.15657 0.173908,-0.26583 -0.0071,-0.0859 -0.0096,-0.088 -0.100943,-0.088 -0.0892,0 -0.09422,0.005 -0.105362,0.0819 -0.01345,0.0942 -0.08529,0.1221 -0.149274,0.058 -0.03965,-0.0397 -0.0523,-0.21014 -0.01944,-0.26184 0.01052,-0.0167 0.08931,-0.031 0.19281,-0.0351 l 0.174922,-0.007 0.0069,-0.18683 c 0.0079,-0.21194 -0.01428,-0.27217 -0.1253,-0.3408 -0.145045,-0.0897 -0.335178,-0.0353 -0.431995,0.12352 -0.04039,0.0662 -0.04655,0.11831 -0.04662,0.39479 -7.2e-5,0.29221 0.0043,0.32505 0.05306,0.39804 0.05414,0.0811 0.182472,0.16141 0.257841,0.16148 0.02295,1e-5 0.07669,-0.0147 0.119445,-0.0324 z m -0.211814,-0.72999 c -0.0077,-0.0202 -0.002,-0.063 0.01263,-0.0951 0.02063,-0.0453 0.04125,-0.0568 0.09089,-0.0512 0.05567,0.007 0.06515,0.019 0.07146,0.0953 0.0071,0.0865 0.0059,0.0878 -0.07683,0.0878 -0.05468,0 -0.08901,-0.0129 -0.09814,-0.0366 z m -1.383116,0.69502 c 0.07433,-0.0379 0.09024,-0.0394 0.114166,-0.0106 0.01713,0.0207 0.06002,0.0307 0.111755,0.0264 l 0.08395,-0.007 v -0.5151 -0.51512 h -0.09365 -0.09365 l -0.0117,0.4048 c -0.01225,0.42383 -0.01901,0.44854 -0.122925,0.44945 -0.03742,3.7e-4 -0.04097,-0.0339 -0.04097,-0.39575 0,-0.21788 -0.0063,-0.4128 -0.01422,-0.43317 -0.0212,-0.0552 -0.164953,-0.0493 -0.195691,0.008 -0.03166,0.0591 -0.03147,0.78233 2.64e-4,0.89648 0.03838,0.13821 0.117026,0.16552 0.262717,0.0912 z m 1.012302,-0.0283 c 0.04337,-0.0425 0.04683,-0.077 0.04683,-0.46494 0,-0.41462 -6.08e-4,-0.41955 -0.05854,-0.48121 -0.05724,-0.061 -0.126458,-0.0698 -0.257557,-0.0333 -0.02844,0.008 -0.03734,-0.0256 -0.04683,-0.17748 l -0.0117,-0.18732 -0.09987,-0.007 -0.09986,-0.007 0.0061,0.69794 0.0061,0.69793 H 5.75123 c 0.08584,0 0.164541,0.008 0.174902,0.0188 0.02789,0.0278 0.130587,-0.002 0.184149,-0.0561 z m -0.299493,-0.12955 c -0.0091,-0.009 -0.01659,-0.16105 -0.01659,-0.33763 0,-0.25679 0.0071,-0.32686 0.03513,-0.35018 0.02805,-0.0233 0.04232,-0.0232 0.07088,4.3e-4 0.02955,0.0246 0.03462,0.0869 0.02927,0.35994 -0.006,0.31216 -0.0091,0.33063 -0.05426,0.3371 -0.02628,0.004 -0.05526,-7.4e-4 -0.06439,-0.009 z m -1.304377,-0.41854 0.0117,-0.58535 0.105362,-0.0118 c 0.105102,-0.0118 0.105386,-0.0121 0.112559,-0.1112 l 0.0072,-0.0995 H 4.390173 c -0.386768,0 -0.406224,0.007 -0.360808,0.13737 0.01762,0.0505 0.03845,0.063 0.114473,0.0693 0.05112,0.005 0.100801,0.0201 0.110432,0.0352 0.0096,0.0151 0.01767,0.27601 0.01787,0.5797 1.77e-4,0.30371 0.0079,0.5597 0.01706,0.56891 0.0092,0.009 0.05924,0.0136 0.111212,0.009 l 0.0945,-0.007 z m -0.0058,-1.72281 c -0.03609,-0.021 -0.04097,-0.065 -0.04097,-0.36923 0,-0.18995 -0.0084,-0.35539 -0.0186,-0.36762 -0.01028,-0.0123 -0.0378,-0.0854 -0.06126,-0.16272 -0.02347,-0.0773 -0.05074,-0.16156 -0.06063,-0.18732 -0.0099,-0.0258 -0.03721,-0.11002 -0.06073,-0.18733 -0.02352,-0.0773 -0.05227,-0.1535 -0.06387,-0.16944 -0.04255,-0.0584 0.0024,-0.0999 0.108198,-0.0999 0.08279,0 0.106946,0.009 0.127514,0.0527 0.0294,0.0611 0.07538,0.22945 0.09277,0.33972 0.0066,0.0419 0.0214,0.0821 0.03286,0.0892 0.01146,0.007 0.02083,0.0333 0.02083,0.0584 0,0.0249 0.0086,0.0454 0.01914,0.0454 0.01778,0 0.06544,-0.13994 0.123606,-0.3629 0.05875,-0.22525 0.04624,-0.2101 0.179655,-0.21782 0.06736,-0.005 0.12247,7.3e-4 0.12247,0.0106 0,0.0189 -0.04286,0.1574 -0.07149,0.23116 -0.01004,0.0258 -0.03631,0.10482 -0.05848,0.17561 -0.02217,0.0709 -0.04797,0.14985 -0.05732,0.17561 -0.08472,0.23315 -0.09389,0.29293 -0.09377,0.61189 8.9e-5,0.32342 -0.0011,0.33125 -0.05256,0.34504 -0.07608,0.0204 -0.140445,0.0168 -0.187315,-0.0106 z m 0.690136,-0.0216 c -0.04218,-0.0256 -0.08695,-0.0737 -0.09951,-0.10682 -0.01256,-0.033 -0.02283,-0.23423 -0.02283,-0.4471 0,-0.43892 0.01493,-0.48963 0.163289,-0.55509 0.156895,-0.0692 0.328645,-0.0373 0.43584,0.0811 0.04053,0.0447 0.04478,0.0886 0.04478,0.46478 0,0.45191 -0.01123,0.50171 -0.128372,0.57093 -0.09377,0.0553 -0.29609,0.0514 -0.393177,-0.008 z m 0.284901,-0.17742 c 0.0078,-0.0203 0.01422,-0.18821 0.01422,-0.37296 0,-0.27416 -0.0067,-0.34268 -0.0368,-0.37271 -0.04352,-0.0435 -0.04666,-0.0438 -0.105233,-0.0126 -0.04185,0.0224 -0.04529,0.0523 -0.04529,0.39414 0,0.20344 0.0071,0.37693 0.01562,0.38551 0.0307,0.0307 0.143373,0.0154 0.157492,-0.0215 z m 0.483749,0.16209 c -0.04675,-0.0593 -0.0487,-0.0853 -0.04267,-0.5678 l 0.0063,-0.50553 0.111212,-0.007 0.111212,-0.007 v 0.43252 c 0,0.2379 0.0063,0.44919 0.0142,0.46957 0.01984,0.0518 0.09546,0.0461 0.144063,-0.0106 0.03429,-0.0401 0.0426,-0.11321 0.05246,-0.46245 l 0.0117,-0.41491 h 0.09365 0.09365 l 0.0061,0.55553 0.0061,0.55554 -0.05727,0.0144 c -0.07426,0.0187 -0.154305,-0.007 -0.154305,-0.05 0,-0.0454 -0.03076,-0.0422 -0.134369,0.0132 -0.12144,0.0651 -0.202849,0.0603 -0.262418,-0.0155 z"
           id="path888-1"
           inkscape:connector-curvature="0"
           sodipodi:nodetypes="cccccccccccccscccccccccccccccccsccccccccccscsccccccsccccccccsccccscccccccccccscccccccccscccccscccssccscccccccccsccsccccsccsccccccccscccccccccsccc" />
        <circle
           style="opacity:0.98999999;fill:none;fill-opacity:1;stroke:#2c87ce;stroke-width:0.52980602;stroke-linecap:round;stroke-linejoin:round;stroke-miterlimit:4;stroke-dasharray:none;stroke-opacity:1"
           id="path914-1-8-08"
           cx="5.4239583"
           cy="291.57602"
           r="5.1590552" />
      </g>
    </g>
  </g>
</svg>
