<?xml version="1.0" encoding="UTF-8" standalone="no"?>
<!-- Created with Inkscape (http://www.inkscape.org/) -->

<svg
   xmlns:dc="http://purl.org/dc/elements/1.1/"
   xmlns:cc="http://creativecommons.org/ns#"
   xmlns:rdf="http://www.w3.org/1999/02/22-rdf-syntax-ns#"
   xmlns:svg="http://www.w3.org/2000/svg"
   xmlns="http://www.w3.org/2000/svg"
   xmlns:sodipodi="http://sodipodi.sourceforge.net/DTD/sodipodi-0.dtd"
   xmlns:inkscape="http://www.inkscape.org/namespaces/inkscape"
   width="600"
   height="300"
   viewBox="0 0 600.00001 300"
   id="svg2"
   version="1.1"
   inkscape:version="0.91 r13725"
   style="shape-rendering:crispEdges"
   sodipodi:docname="logo2.svg">
  <defs
     id="defs4">
    <filter
       style="color-interpolation-filters:sRGB"
       inkscape:label="Drop Shadow"
       id="filter4318">
      <feFlood
         flood-opacity="0.498039"
         flood-color="rgb(0,0,0)"
         result="flood"
         id="feFlood4320" />
      <feComposite
         in="flood"
         in2="SourceGraphic"
         operator="in"
         result="composite1"
         id="feComposite4322" />
      <feGaussianBlur
         in="composite1"
         stdDeviation="3"
         result="blur"
         id="feGaussianBlur4324" />
      <feOffset
         dx="-3.90625"
         dy="0.5"
         result="offset"
         id="feOffset4326" />
      <feComposite
         in="SourceGraphic"
         in2="offset"
         operator="over"
         result="composite2"
         id="feComposite4328" />
    </filter>
  </defs>
  <sodipodi:namedview
     id="base"
     pagecolor="#ffffff"
     bordercolor="#666666"
     borderopacity="0.77254902"
     inkscape:pageopacity="0.0"
     inkscape:pageshadow="2"
     inkscape:zoom="0.90509664"
     inkscape:cx="244.46657"
     inkscape:cy="86.391507"
     inkscape:document-units="px"
     inkscape:current-layer="layer1"
     showgrid="false"
     units="px"
     inkscape:window-width="1920"
     inkscape:window-height="1018"
     inkscape:window-x="-8"
     inkscape:window-y="-8"
     inkscape:window-maximized="1"
     inkscape:snap-center="false" />
  <metadata
     id="metadata7">
    <rdf:RDF>
      <cc:Work
         rdf:about="">
        <dc:format>image/svg+xml</dc:format>
        <dc:type
           rdf:resource="http://purl.org/dc/dcmitype/StillImage" />
        <dc:title />
      </cc:Work>
    </rdf:RDF>
  </metadata>
  <g
     inkscape:label="Layer 1"
     inkscape:groupmode="layer"
     id="layer1"
     transform="translate(0,-752.3605)">
    <g
       id="layer1-6"
       inkscape:label="Layer 1"
       transform="matrix(2.5367812,0,0,2.6061159,-434.60606,-283.64954)"
       inkscape:export-xdpi="100.15984"
       inkscape:export-ydpi="100.15984">
      <g
         transform="translate(23.1535,325.50135)"
         id="g4150">
        <path
           d="m 200.8945,149.4411 c -4.7503,0 -9.1341,-0.7036 -13.1658,-2.1112 -4.0173,-1.3927 -7.4776,-3.4892 -10.3658,-6.2604 -2.8882,-2.7856 -5.1312,-6.2455 -6.7294,-10.3949 -1.5835,-4.1638 -2.3752,-8.958 -2.3752,-14.3972 0,-5.0581 0.7626,-9.6618 2.2726,-13.7817 1.5247,-4.1199 3.7238,-7.6677 6.6121,-10.6149 2.7859,-2.8296 6.2311,-5.0287 10.3362,-6.5682 4.1051,-1.5539 8.5915,-2.3164 13.4592,-2.3164 2.6977,0 5.1168,0.1465 7.2867,0.4399 2.1552,0.3078 4.1638,0.7036 5.9964,1.1874 1.9061,0.5426 3.6508,1.1583 5.2047,1.8326 1.5687,0.6599 2.9325,1.2904 4.1052,1.8621 l 0,15.5118 -1.8913,0 c -0.7917,-0.6891 -1.8034,-1.5103 -3.0203,-2.4486 -1.2167,-0.953 -2.5949,-1.8765 -4.1491,-2.8004 -1.5687,-0.9087 -3.2839,-1.686 -5.1168,-2.3164 -1.8326,-0.6305 -3.7826,-0.9383 -5.8791,-0.9383 -2.3164,0 -4.5156,0.3518 -6.6123,1.0848 -2.0965,0.7333 -4.017,1.95 -5.806,3.6363 -1.686,1.6274 -3.0495,3.797 -4.0904,6.4803 -1.0556,2.6974 -1.5687,5.9525 -1.5687,9.7937 0,4.0172 0.5571,7.3599 1.6861,10.0576 1.1435,2.683 2.5656,4.809 4.2812,6.3482 1.7444,1.5834 3.6946,2.6977 5.8351,3.3721 2.1552,0.6746 4.2664,1.0117 6.3629,1.0117 2.0086,0 3.9881,-0.2931 5.9525,-0.8944 1.9647,-0.6009 3.7681,-1.4221 5.4246,-2.4483 1.4077,-0.8356 2.7125,-1.7299 3.9147,-2.6685 1.2022,-0.9383 2.1846,-1.7592 2.9616,-2.4483 l 1.7153,0 0,15.2918 c -1.5979,0.7183 -3.1374,1.3927 -4.589,2.0231 -1.4661,0.6304 -2.9909,1.173 -4.6035,1.6274 -2.082,0.6012 -4.0467,1.0556 -5.8793,1.3782 -1.8326,0.3078 -4.3543,0.4691 -7.5651,0.4691 z m 98.1144,-33.1637 c 0,5.9525 -1.3635,11.289 -4.0904,16.0101 -2.7122,4.7064 -6.1577,8.3129 -10.3068,10.8346 -3.1229,1.8913 -6.5389,3.2108 -10.2631,3.9586 -3.7238,0.7478 -8.1368,1.1143 -13.2244,1.1143 l -22.5491,0 0,-63.9527 23.1942,0 c 5.2047,0 9.7058,0.4252 13.4884,1.305 3.7681,0.8796 6.9494,2.1113 9.5298,3.7092 4.4133,2.6977 7.888,6.3337 10.4097,10.8935 2.5364,4.5743 3.8117,9.9403 3.8117,16.1274 z m -17.0509,-0.132 c 0,-4.2078 -0.777,-7.7999 -2.3018,-10.7907 -1.5395,-2.9908 -3.9586,-5.3368 -7.2867,-7.0228 -1.6861,-0.8357 -3.4161,-1.4074 -5.1755,-1.7008 -1.7595,-0.3079 -4.413,-0.4544 -7.9611,-0.4544 l -4.1638,0 0,40.0399 4.1638,0 c 3.9146,0 6.8028,-0.1905 8.6354,-0.5422 1.8329,-0.3521 3.6216,-1.0117 5.366,-1.95 3.0056,-1.7303 5.205,-4.0173 6.6124,-6.9055 1.4074,-2.8737 2.1113,-6.4219 2.1113,-10.6735 z m 83.7467,11.9488 c 0,6.3046 -2.6685,11.4214 -8.0198,15.3505 -5.3367,3.9438 -12.5793,5.9085 -21.7428,5.9085 -5.3073,0 -9.9255,-0.4691 -13.8549,-1.3929 -3.9439,-0.9383 -7.6238,-2.111 -11.0693,-3.5479 l 0,-15.3357 1.8034,0 c 3.416,2.727 7.2281,4.8087 11.4505,6.2751 4.2225,1.4661 8.2837,2.1844 12.1836,2.1844 0.997,0 2.3165,-0.0732 3.9439,-0.2492 1.6421,-0.176 2.9616,-0.4544 4.0025,-0.8651 1.2608,-0.5131 2.287,-1.1583 3.1082,-1.9353 0.8209,-0.7622 1.2316,-1.906 1.2316,-3.4307 0,-1.4074 -0.6012,-2.6096 -1.7889,-3.636 -1.1874,-1.0117 -2.9322,-1.7887 -5.2192,-2.3312 -2.4046,-0.5718 -4.941,-1.1141 -7.624,-1.6127 -2.683,-0.4986 -5.19,-1.1435 -7.5359,-1.906 -5.3807,-1.7592 -9.2512,-4.1199 -11.6263,-7.1107 -2.3604,-2.9908 -3.5334,-6.715 -3.5334,-11.1572 0,-5.9524 2.6682,-10.8053 8.005,-14.5734 5.3368,-3.7678 12.2128,-5.6447 20.5991,-5.6447 4.2078,0 8.3716,0.396 12.4767,1.2169 4.1051,0.8212 7.668,1.8474 10.6736,3.079 l 0,14.7201 -1.7595,0 c -2.5804,-2.0526 -5.7325,-3.7829 -9.4711,-5.1755 -3.7386,-1.3782 -7.5506,-2.0821 -11.4506,-2.0821 -1.3782,0 -2.7416,0.1026 -4.1051,0.2787 -1.3487,0.1905 -2.6682,0.5425 -3.9291,1.0556 -1.1143,0.4252 -2.0673,1.0848 -2.8738,1.9499 -0.8064,0.8796 -1.2021,1.8766 -1.2021,2.9909 0,1.686 0.6451,2.9908 1.9352,3.8851 1.2903,0.9091 3.7241,1.7303 7.3015,2.4778 2.3456,0.4839 4.6034,0.953 6.7586,1.4077 2.1699,0.4691 4.4864,1.0996 6.9789,1.8913 4.8969,1.6126 8.5181,3.7973 10.8493,6.5537 2.3312,2.7561 3.5042,6.3482 3.5042,10.7611 z"
           style="fill:#ff0000;fill-rule:evenodd;stroke:#ffffff;stroke-width:3.9684999;stroke-linecap:butt;stroke-linejoin:miter;stroke-dasharray:none;filter:url(#filter4318)"
           id="path4140"
           inkscape:connector-curvature="0" />
        <path
           d="m 174.4945,171.6295 2.481,0.7853 c -0.3811,1.3853 -1.0131,2.4132 -1.899,3.0864 -0.8831,0.6704 -2.0083,1.0071 -3.3699,1.0071 -1.6835,0 -3.0685,-0.5759 -4.1524,-1.7248 -1.0838,-1.1518 -1.6271,-2.7258 -1.6271,-4.7193 0,-2.1118 0.5461,-3.7507 1.6361,-4.9201 1.0897,-1.1666 2.522,-1.7514 4.3,-1.7514 1.5506,0 2.8116,0.4577 3.7802,1.3763 0.5788,0.5403 1.0099,1.3199 1.2994,2.3359 l -2.5367,0.6054 c -0.1477,-0.6585 -0.4609,-1.1784 -0.9391,-1.5592 -0.4757,-0.3812 -1.0545,-0.5701 -1.7338,-0.5701 -0.9391,0 -1.704,0.3366 -2.2889,1.0131 -0.5845,0.6732 -0.877,1.7661 -0.877,3.2782 0,1.6034 0.2864,2.7466 0.8652,3.4256 0.5759,0.6822 1.326,1.0221 2.2475,1.0221 0.6822,0 1.2671,-0.2156 1.7572,-0.6499 0.4903,-0.4311 0.8417,-1.1134 1.0573,-2.0406 z m 4.6869,4.6632 0,-12.6845 2.5634,0 0,4.9912 5.0178,0 0,-4.9912 2.5604,0 0,12.6845 -2.5604,0 0,-5.5463 -5.0178,0 0,5.5463 -2.5634,0 z m 12.271,-6.2641 c 0,-1.2933 0.1918,-2.3772 0.5787,-3.2545 0.2893,-0.6438 0.6823,-1.2255 1.1813,-1.7396 0.499,-0.5109 1.0455,-0.8917 1.639,-1.1399 0.7914,-0.3367 1.7011,-0.5019 2.735,-0.5019 1.8693,0 3.3638,0.5788 4.4858,1.7395 1.1223,1.1576 1.6835,2.7703 1.6835,4.8346 0,2.0496 -0.5583,3.6501 -1.6717,4.808 -1.1133,1.1547 -2.6017,1.7335 -4.4624,1.7335 -1.8872,0 -3.3874,-0.5759 -4.5008,-1.7248 -1.1134,-1.1518 -1.6684,-2.7376 -1.6684,-4.7549 z m 2.637,-0.0855 c 0,1.4353 0.3337,2.5249 0.9955,3.2664 0.6643,0.7412 1.506,1.1105 2.5281,1.1105 1.0189,0 1.8574,-0.3664 2.5131,-1.1047 0.6527,-0.7354 0.9804,-1.8369 0.9804,-3.3078 0,-1.4528 -0.3187,-2.5367 -0.9539,-3.2545 -0.6377,-0.7146 -1.4855,-1.072 -2.5396,-1.072 -1.0573,0 -1.908,0.3632 -2.5547,1.0867 -0.6438,0.7236 -0.9689,1.8136 -0.9689,3.2754 z m 11.6656,6.3496 0,-12.6845 4.1081,0 c 1.5564,0 2.5724,0.0651 3.0448,0.1919 0.7268,0.189 1.3379,0.6025 1.8283,1.2405 0.4903,0.638 0.7354,1.4619 0.7354,2.4689 0,0.7796 -0.1419,1.4352 -0.4254,1.964 -0.2835,0.5317 -0.6409,0.9481 -1.0778,1.2521 -0.4343,0.3014 -0.8773,0.5022 -1.326,0.5996 -0.6115,0.1211 -1.4974,0.1832 -2.6582,0.1832 l -1.6684,0 0,4.7843 -2.5608,0 z m 2.5608,-10.5375 0,3.5973 1.3997,0 c 1.0099,0 1.6864,-0.065 2.0259,-0.198 0.3398,-0.1329 0.6057,-0.3395 0.8004,-0.623 0.1919,-0.2837 0.2895,-0.6114 0.2895,-0.9865 0,-0.4609 -0.1358,-0.8417 -0.4077,-1.1428 -0.2687,-0.2985 -0.6143,-0.4875 -1.0275,-0.5612 -0.3072,-0.0592 -0.9215,-0.0858 -1.843,-0.0858 l -1.2373,0 z m 13.8539,-2.147 4.6808,0 c 1.0544,0 1.8577,0.0798 2.4128,0.2422 0.7444,0.2184 1.3824,0.6082 1.9109,1.1694 0.5317,0.5583 0.9362,1.2434 1.2139,2.0528 0.2745,0.8119 0.4132,1.8103 0.4132,3.0005 0,1.0423 -0.1297,1.9433 -0.3898,2.6992 -0.3158,0.9215 -0.7677,1.6688 -1.3584,2.2386 -0.4429,0.4343 -1.0425,0.7709 -1.7984,1.0131 -0.5641,0.18 -1.3203,0.2687 -2.2684,0.2687 l -4.8166,0 0,-12.6845 z m 2.5604,2.147 0,8.3992 1.9109,0 c 0.7146,0 1.2313,-0.0384 1.5503,-0.1211 0.4135,-0.1031 0.7591,-0.2774 1.0336,-0.5256 0.2748,-0.2479 0.4964,-0.6585 0.6707,-1.2255 0.171,-0.5672 0.2597,-1.3439 0.2597,-2.3244 0,-0.9804 -0.0887,-1.7305 -0.2597,-2.2561 -0.1743,-0.526 -0.4167,-0.9363 -0.7268,-1.2287 -0.3129,-0.2953 -0.7088,-0.4933 -1.187,-0.5967 -0.3575,-0.0827 -1.0573,-0.1211 -2.1028,-0.1211 l -1.1489,0 z m 10.165,10.5375 0,-12.6845 2.5608,0 0,12.6845 -2.5608,0 z m 5.0031,0 0,-12.6845 9.4033,0 0,2.147 -6.8425,0 0,2.8116 6.3672,0 0,2.1354 -6.3672,0 0,3.4522 7.085,0 0,2.1383 -9.6458,0 z m 11.1694,-4.1258 2.4926,-0.245 c 0.1477,0.8385 0.452,1.4529 0.9125,1.8456 0.4577,0.3901 1.075,0.5877 1.8549,0.5877 0.8238,0 1.4471,-0.1742 1.8635,-0.5256 0.4193,-0.3485 0.6291,-0.7559 0.6291,-1.2226 0,-0.3014 -0.0888,-0.5554 -0.2659,-0.7648 -0.1742,-0.2127 -0.4814,-0.3959 -0.9215,-0.5494 -0.2982,-0.1063 -0.9833,-0.2895 -2.0496,-0.5554 -1.3734,-0.3395 -2.3359,-0.7587 -2.8884,-1.2549 -0.7796,-0.6973 -1.1694,-1.5477 -1.1694,-2.5518 0,-0.6467 0.1832,-1.2492 0.5493,-1.8132 0.3661,-0.5612 0.8949,-0.9894 1.5829,-1.2847 0.6912,-0.2925 1.5211,-0.4401 2.4957,-0.4401 1.5948,0 2.7908,0.3485 3.597,1.0454 0.8033,0.6999 1.2258,1.6303 1.2671,2.7969 l -2.5605,0.1121 c -0.1095,-0.6528 -0.3456,-1.1223 -0.7059,-1.4058 -0.3603,-0.2864 -0.9007,-0.4282 -1.6214,-0.4282 -0.7443,0 -1.3289,0.1505 -1.7485,0.4577 -0.2716,0.195 -0.4074,0.458 -0.4074,0.7857 0,0.301 0.1269,0.5582 0.3809,0.7709 0.3219,0.2716 1.1075,0.5551 2.3538,0.8475 1.2463,0.2953 2.1678,0.5996 2.7642,0.9126 0.5967,0.3161 1.0634,0.7443 1.4029,1.2904 0.3366,0.5465 0.5051,1.2197 0.5051,2.0202 0,0.7264 -0.2008,1.4086 -0.6053,2.0409 -0.4049,0.6348 -0.9747,1.1073 -1.713,1.4144 -0.7383,0.3101 -1.6598,0.4638 -2.7613,0.4638 -1.6037,0 -2.8353,-0.3693 -3.6946,-1.1104 -0.8594,-0.7412 -1.3735,-1.8222 -1.5388,-3.2399 z m 12.4686,4.1258 0,-12.6845 9.4034,0 0,2.147 -6.8426,0 0,2.8116 6.3672,0 0,2.1354 -6.3672,0 0,3.4522 7.085,0 0,2.1383 -9.6458,0 z m 11.887,0 0,-12.581 2.5607,0 0,10.4427 6.3673,0 0,2.1383 -8.928,0 z m 14.7106,-4.1258 2.4926,-0.245 c 0.1477,0.8385 0.4519,1.4529 0.9125,1.8456 0.4577,0.3901 1.075,0.5877 1.8549,0.5877 0.8238,0 1.4471,-0.1742 1.8635,-0.5256 0.4193,-0.3485 0.629,-0.7559 0.629,-1.2226 0,-0.3014 -0.0887,-0.5554 -0.2658,-0.7648 -0.1742,-0.2127 -0.4814,-0.3959 -0.9215,-0.5494 -0.2982,-0.1063 -0.9833,-0.2895 -2.0496,-0.5554 -1.3734,-0.3395 -2.3359,-0.7587 -2.8884,-1.2549 -0.7797,-0.6973 -1.1695,-1.5477 -1.1695,-2.5518 0,-0.6467 0.1833,-1.2492 0.5494,-1.8132 0.3661,-0.5612 0.8949,-0.9894 1.5829,-1.2847 0.6912,-0.2925 1.5211,-0.4401 2.4957,-0.4401 1.5948,0 2.7908,0.3485 3.597,1.0454 0.8033,0.6999 1.2258,1.6303 1.2671,2.7969 l -2.5605,0.1121 c -0.1095,-0.6528 -0.3456,-1.1223 -0.7059,-1.4058 -0.3603,-0.2864 -0.9007,-0.4282 -1.6214,-0.4282 -0.7443,0 -1.3289,0.1505 -1.7485,0.4577 -0.2716,0.195 -0.4074,0.458 -0.4074,0.7857 0,0.301 0.1268,0.5582 0.3808,0.7709 0.3219,0.2716 1.1076,0.5551 2.3539,0.8475 1.2463,0.2953 2.1678,0.5996 2.7642,0.9126 0.5967,0.3161 1.0634,0.7443 1.4029,1.2904 0.3366,0.5465 0.5051,1.2197 0.5051,2.0202 0,0.7264 -0.2008,1.4086 -0.6053,2.0409 -0.4049,0.6348 -0.9747,1.1073 -1.713,1.4144 -0.7383,0.3101 -1.6598,0.4638 -2.7613,0.4638 -1.6037,0 -2.8353,-0.3693 -3.6946,-1.1104 -0.8594,-0.7412 -1.3735,-1.8222 -1.5388,-3.2399 z m 12.4686,4.1258 0,-12.6845 9.4034,0 0,2.147 -6.8426,0 0,2.8116 6.3672,0 0,2.1354 -6.3672,0 0,3.4522 7.085,0 0,2.1383 -9.6458,0 z m 11.8251,0 0,-12.6845 5.3926,0 c 1.3558,0 2.3391,0.1153 2.9535,0.3428 0.6143,0.2274 1.1075,0.6319 1.4765,1.2136 0.3693,0.5848 0.5522,1.2491 0.5522,1.9993 0,0.9509 -0.2806,1.7395 -0.8385,2.3599 -0.5583,0.6172 -1.3972,1.0099 -2.5105,1.1694 0.5554,0.3248 1.0131,0.6794 1.3734,1.0663 0.3604,0.3866 0.8447,1.0721 1.4561,2.0583 l 1.5502,2.4749 -3.0623,0 -1.852,-2.7613 c -0.6585,-0.9865 -1.1073,-1.6066 -1.3494,-1.8635 -0.2422,-0.2569 -0.4994,-0.4311 -0.771,-0.5288 -0.2716,-0.0945 -0.6998,-0.1416 -1.2905,-0.1416 l -0.5169,0 0,5.2952 -2.5634,0 z m 2.5634,-7.3214 1.8933,0 c 1.2283,0 1.9964,-0.05 2.3036,-0.1534 0.3039,-0.1035 0.5432,-0.2835 0.7174,-0.5375 0.1714,-0.254 0.2601,-0.5701 0.2601,-0.9509 0,-0.4283 -0.1153,-0.771 -0.3427,-1.0336 -0.2274,-0.263 -0.5493,-0.4283 -0.9657,-0.4994 -0.2069,-0.0266 -0.8299,-0.0413 -1.8696,-0.0413 l -1.9964,0 0,3.2161 z m 13.1422,7.3214 -4.5335,-12.6845 2.7792,0 3.2071,9.3886 3.1069,-9.3886 2.7171,0 -4.5421,12.6845 -2.7347,0 z m 8.5052,0 0,-12.6845 2.5608,0 0,12.6845 -2.5608,0 z m 13.1188,-4.6632 2.481,0.7853 c -0.3812,1.3853 -1.0131,2.4132 -1.8991,3.0864 -0.883,0.6704 -2.0082,1.0071 -3.3698,1.0071 -1.6835,0 -3.0685,-0.5759 -4.1524,-1.7248 -1.0839,-1.1518 -1.6271,-2.7258 -1.6271,-4.7193 0,-2.1118 0.5461,-3.7507 1.6361,-4.9201 1.0897,-1.1666 2.522,-1.7514 4.3,-1.7514 1.5506,0 2.8116,0.4577 3.7802,1.3763 0.5788,0.5403 1.0099,1.3199 1.2994,2.3359 l -2.5367,0.6054 c -0.1477,-0.6585 -0.4609,-1.1784 -0.9392,-1.5592 -0.4756,-0.3812 -1.0544,-0.5701 -1.7337,-0.5701 -0.9391,0 -1.704,0.3366 -2.2889,1.0131 -0.5845,0.6732 -0.877,1.7661 -0.877,3.2782 0,1.6034 0.2864,2.7466 0.8652,3.4256 0.5759,0.6822 1.326,1.0221 2.2475,1.0221 0.6822,0 1.2671,-0.2156 1.7572,-0.6499 0.4903,-0.4311 0.8417,-1.1134 1.0573,-2.0406 z m 4.6808,4.6632 0,-12.6845 9.4033,0 0,2.147 -6.8425,0 0,2.8116 6.3672,0 0,2.1354 -6.3672,0 0,3.4522 7.085,0 0,2.1383 -9.6458,0 z"
           style="fill:#999999;fill-rule:evenodd"
           id="path4142"
           inkscape:connector-curvature="0" />
      </g>
    </g>
  </g>
</svg>
