<?xml version="1.0" encoding="UTF-8" standalone="no"?>
<!-- Created with Inkscape (http://www.inkscape.org/) -->

<svg
   xmlns:dc="http://purl.org/dc/elements/1.1/"
   xmlns:cc="http://creativecommons.org/ns#"
   xmlns:rdf="http://www.w3.org/1999/02/22-rdf-syntax-ns#"
   xmlns:svg="http://www.w3.org/2000/svg"
   xmlns="http://www.w3.org/2000/svg"
   xmlns:sodipodi="http://sodipodi.sourceforge.net/DTD/sodipodi-0.dtd"
   xmlns:inkscape="http://www.inkscape.org/namespaces/inkscape"
   width="450"
   height="450"
   viewBox="0 0 119.0625 119.0625"
   version="1.1"
   id="svg8"
   inkscape:version="0.92.4 (5da689c313, 2019-01-14)"
   sodipodi:docname="cycle.svg">
  <defs
     id="defs2" />
  <sodipodi:namedview
     id="base"
     pagecolor="#ffffff"
     bordercolor="#666666"
     borderopacity="1.0"
     inkscape:pageopacity="0.0"
     inkscape:pageshadow="2"
     inkscape:zoom="0.7"
     inkscape:cx="42.570271"
     inkscape:cy="306.16163"
     inkscape:document-units="mm"
     inkscape:current-layer="layer1"
     showgrid="false"
     units="px"
     inkscape:window-width="1920"
     inkscape:window-height="1017"
     inkscape:window-x="-8"
     inkscape:window-y="-8"
     inkscape:window-maximized="1" />
  <metadata
     id="metadata5">
    <rdf:RDF>
      <cc:Work
         rdf:about="">
        <dc:format>image/svg+xml</dc:format>
        <dc:type
           rdf:resource="http://purl.org/dc/dcmitype/StillImage" />
        <dc:title></dc:title>
      </cc:Work>
    </rdf:RDF>
  </metadata>
  <g
     inkscape:label="Layer 1"
     inkscape:groupmode="layer"
     id="layer1"
     transform="translate(0,-177.93748)">
    <path
       style="fill:#ffffff;stroke-width:0.23668866"
       d="m 17.283574,291.3943 c -0.26698,-0.28658 -0.48259,-0.84058 -0.48259,-1.24 0,-0.61663 0.55193,-1.27509 3.78176,-4.51163 l 3.78176,-3.78964 -0.64564,-1.30125 c -0.57329,-1.15546 -0.64564,-1.56653 -0.64564,-3.66867 0,-2.57751 0.31312,-3.50043 1.74453,-5.14194 l 0.67651,-0.77581 -1.69295,-2.84027 -1.69295,-2.84026 -2.23948,-0.009 c -1.94956,-0.008 -2.41385,-0.0936 -3.58629,-0.66138 -1.63237,-0.79051 -3.56369,-2.81778 -4.03622,-4.23679 l -0.3363,-1.00986 -5.5049698,-0.11835 c -5.43337001,-0.11681 -5.51084001,-0.12561 -5.95699001,-0.67711 -0.68338,-0.84477 -0.58034,-1.77642 0.2762,-2.49715 l 0.72822001,-0.61276 h 5.18899 c 4.5046498,0 5.1889998,-0.0479 5.1889998,-0.3629 0,-0.65994 1.1216,-2.58102 2.04745,-3.50686 0.50114,-0.50114 1.4437,-1.19235 2.09459,-1.53603 1.03613,-0.54707 1.47809,-0.62811 3.55033,-0.65099 l 2.36689,-0.0261 1.72383,-2.91379 1.72382,-2.9138 -0.58258,-0.61285 c -0.32042,-0.33706 -0.88107,-1.19865 -1.24589,-1.91463 -0.58194,-1.14209 -0.663,-1.5631 -0.66081,-3.43199 0.003,-2.38432 0.42573,-3.6473 1.71198,-5.11225 l 0.72683,-0.82782 -1.66966,-2.97439 -1.66966,-2.9744 -0.97569,0.22196 c -3.23146,0.73514 -7.42264,-1.61711 -8.62407,-4.84017 l -0.46392,-1.24458 -5.4919098,-0.11834 c -5.41964001,-0.11679 -5.49786001,-0.1257 -5.94394001,-0.67711 -0.58783,-0.72665 -0.57513,-1.70506 0.0306,-2.35521 0.46988,-0.50436 0.62845001,-0.51801 6.01721001,-0.51801 h 5.5346098 l 0.29138,-0.88758 c 0.70609,-2.15084 2.49335,-3.98262 4.69702,-4.814 1.06227,-0.40077 1.69715,-0.47916 3.24597,-0.40078 l 1.92543,0.0974 1.6249,-2.71613 c 0.89371,-1.49387 1.6581,-2.79854 1.69866,-2.89928 0.0405,-0.10073 -0.29606,-0.72074 -0.74803,-1.37779 -1.29932,-1.88888 -1.63867,-3.0237 -1.54032,-5.15111 0.0667,-1.44291 0.2356,-2.15673 0.76611,-3.23811 l 0.68055,-1.38717 -3.67556,-3.70163 c -2.02156,-2.0359 -3.74522,-3.93727 -3.83036,-4.22525 -0.2998,-1.01406 0.69242,-2.17805 1.86752,-2.19079 0.58472,-0.006 1.3131,0.60628 4.61542,3.88192 l 3.92113,3.88945 0.81689,-0.34772 c 3.79076,-1.61365 9.01018,0.785 10.22522,4.69912 l 0.27553,0.88758 h 3.52029 c 3.14176,0 3.5353,-0.0446 3.65973,-0.4142 0.748,-2.22198 2.26335,-3.96073 4.3412,-4.98123 1.11633,-0.54826 1.59211,-0.63828 3.31524,-0.62727 1.36376,0.009 2.31304,0.14463 2.94682,0.42192 l 0.93497,0.40907 2.37867,-2.32328 c 6.37048,-6.22211 6.46907,-6.28853 7.79059,-5.24902 0.47239,0.37158 0.62364,0.70234 0.62364,1.36374 0,0.81234 -0.2627,1.13549 -3.77069,4.63834 l -3.77069,3.76516 0.61581,1.20253 c 0.46726,0.91246 0.64137,1.66638 0.72185,3.1256 0.12591,2.28257 -0.13133,3.22392 -1.40991,5.15962 -0.5094,0.7712 -0.8814,1.51676 -0.82667,1.65682 0.0547,0.14006 0.80106,1.42104 1.65852,2.84662 l 1.559,2.59196 2.31553,0.0127 c 2.06042,0.0114 2.45334,0.0852 3.56628,0.6706 1.64496,0.86523 2.99627,2.28889 3.78791,3.99069 l 0.64187,1.37983 3.55395,0.003 3.55394,0.003 0.41165,-1.15903 c 0.55338,-1.55807 2.25527,-3.40076 3.87102,-4.19127 1.6317,-0.79832 4.15126,-1.01006 5.82659,-0.48966 l 1.12231,0.34861 2.95199,-3.98052 c 1.62358,-2.18929 3.19256,-4.14903 3.4866,-4.35499 0.76489,-0.53575 1.54576,-0.46295 2.215216,0.2065 1.06922,1.06923 0.85834,1.56991 -2.612586,6.20296 l -3.19356,4.26282 0.75002,1.38477 c 0.60591,1.11868 0.77027,1.7345 0.85539,3.2049 0.12982,2.24253 -0.28542,3.62848 -1.61064,5.37588 l -0.94708,1.24879 1.66045,2.93264 1.66045,2.93264 0.88034,-0.24308 c 3.238606,-0.89422 7.536126,1.69045 8.832736,5.3123 l 0.31775,0.88759 h 5.36437 c 5.06861,0 5.39877,0.027 5.98802,0.49055 0.78144,0.61468 0.85504,1.88162 0.15026,2.5864 -0.4476,0.4476 -0.78896,0.47338 -6.26989,0.47338 h -5.79651 l -0.68527,1.51131 c -0.80761,1.78116 -2.10031,3.15537 -3.71644,3.95077 -1.00056,0.49245 -1.50405,0.57348 -3.563496,0.57348 h -2.39832 l -0.97315,1.77516 c -0.53523,0.97635 -1.24971,2.26613 -1.58774,2.8662 l -0.6146,1.09104 0.96597,1.27585 c 0.53128,0.70172 1.12677,1.74749 1.32331,2.32395 0.69917,2.05066 0.33088,5.25613 -0.78373,6.82146 l -0.48764,0.68484 3.77296,3.76744 c 3.510196,3.50507 3.772966,3.82826 3.772966,4.64063 0,0.66139 -0.15126,0.99216 -0.62364,1.36373 -1.233366,0.97017 -1.525616,0.79406 -5.901676,-3.55617 -3.90756,-3.8845 -4.0932,-4.03424 -4.63076,-3.73505 -0.34517,0.19211 -1.37725,0.31332 -2.6902,0.31593 -1.78826,0.004 -2.32017,-0.089 -3.31365,-0.57697 -1.58824,-0.78 -3.20638,-2.44064 -3.9879,-4.09264 l -0.6414,-1.3558 h -3.55082 c -3.17746,0 -3.56366,0.0436 -3.67287,0.4142 -0.33587,1.13988 -1.43206,2.98107 -2.15032,3.61172 -0.44396,0.38981 -1.36245,0.99757 -2.04109,1.3506 -1.08556,0.5647 -1.51608,0.6447 -3.58162,0.66556 l -2.34775,0.0237 -1.61591,2.82516 c -0.88876,1.55383 -1.61632,2.90412 -1.61679,3.00062 -4.7e-4,0.0965 0.36155,0.65028 0.80452,1.23059 1.76218,2.30858 2.06653,5.59666 0.76425,8.25661 l -0.67493,1.37856 3.69469,3.74036 c 3.40027,3.44228 3.6947,3.80868 3.6947,4.59782 0,1.09088 -0.67742,1.80423 -1.71338,1.80423 -0.67474,0 -1.22573,-0.45848 -4.59709,-3.82519 l -3.83046,-3.82518 -1.34415,0.42278 c -3.90254,1.22749 -7.97496,-0.65717 -9.73711,-4.50622 l -0.58787,-1.28407 h -3.42206 c -3.0482,0 -3.4373,0.0453 -3.5615,0.4142 -0.7475,2.22047 -2.19338,3.93932 -4.15715,4.94194 -1.65915,0.84709 -4.3045,1.04005 -6.09689,0.44471 l -1.23588,-0.41049 -3.83918,3.81376 c -3.55005,3.52655 -3.9041,3.81376 -4.70132,3.81376 -0.5821,0 -1.0189,-0.16826 -1.34474,-0.51801 z m 29.30626,-17.55733 c 0.76529,-1.8464 1.93553,-3.0845 3.76744,-3.98595 1.44816,-0.71259 1.77251,-0.77918 3.79579,-0.77918 h 2.21231 l 1.66577,-2.88964 1.66577,-2.88965 -0.73847,-0.93238 c -1.22344,-1.54473 -1.6727,-2.79703 -1.6785,-4.67879 -0.006,-1.98854 0.40157,-3.27892 1.53407,-4.85527 0.45519,-0.63359 0.82553,-1.23162 0.82299,-1.32894 -0.003,-0.0973 -0.74465,-1.44986 -1.64913,-3.00562 l -1.64451,-2.82866 -2.3154,-0.0127 c -2.06028,-0.0114 -2.45322,-0.0853 -3.56615,-0.67061 -1.64495,-0.86523 -2.99627,-2.28888 -3.78792,-3.99068 l -0.64186,-1.37983 -3.4356,-0.003 -3.4356,-0.003 -0.41166,1.15902 c -0.55449,1.56121 -2.18612,3.31821 -3.87709,4.175 -1.25091,0.63382 -1.60555,0.70153 -3.67416,0.70153 h -2.2896 l -1.59962,2.72192 c -0.8798,1.49706 -1.64516,2.81046 -1.70079,2.91868 -0.0556,0.1082 0.1672,0.48099 0.49521,0.82841 2.5414,2.6918 2.55222,7.43386 0.0238,10.4387 l -0.63759,0.75773 0.55424,0.98986 c 0.30483,0.54443 1.06548,1.84194 1.69033,2.88338 l 1.13607,1.8935 h 2.19043 c 1.90946,0 2.36011,0.0834 3.51329,0.64967 1.70894,0.83927 3.16333,2.31661 3.95994,4.02247 l 0.63441,1.3585 3.4476,0.003 3.44761,0.003 0.52656,-1.27045 z m 34.13462,-19.2623 c 0.60223,-1.8373 2.08361,-3.55768 3.88783,-4.51508 1.03383,-0.54861 1.47718,-0.6313 3.50686,-0.65416 l 2.32343,-0.0262 1.64111,-2.87188 c 0.90261,-1.57955 1.64112,-2.93657 1.64112,-3.01561 0,-0.0791 -0.36701,-0.57247 -0.81557,-1.09651 -1.07631,-1.25744 -1.55364,-2.73994 -1.54093,-4.78598 0.0133,-2.15177 0.52559,-3.53783 2.15651,-5.83538 0.21414,-0.30167 -0.0571,-0.92163 -1.39419,-3.18711 l -1.66003,-2.81259 -2.10074,-0.008 c -1.81198,-0.007 -2.28629,-0.0993 -3.45049,-0.67099 -1.65558,-0.81301 -3.2691,-2.55224 -3.99701,-4.30845 l -0.53923,-1.301 h -3.56956 -3.56956 l -0.40495,1.14013 c -1.2215,3.43923 -4.41513,5.48208 -8.08523,5.17184 l -1.71541,-0.145 -1.70264,2.9456 -1.70266,2.9456 0.83187,1.15791 c 2.24012,3.11807 2.18561,6.90239 -0.14129,9.80943 -0.39407,0.49232 -0.68212,0.98056 -0.6401,1.08498 0.042,0.10442 0.81382,1.46559 1.71513,3.02482 l 1.63874,2.83498 1.93802,-0.10172 c 1.73217,-0.0909 2.09316,-0.0321 3.39847,0.55368 1.75857,0.7892 3.75312,2.81822 4.37751,4.45317 l 0.42058,1.10126 h 3.63074 3.63074 z m -34.43717,-18.69841 c 0.34658,-1.1763 1.44254,-2.98828 2.24701,-3.71508 1.75161,-1.58247 2.66148,-1.90627 5.35649,-1.90627 h 2.41491 l 1.69986,-2.94077 c 1.09618,-1.89641 1.62549,-3.03731 1.49045,-3.21261 -0.85669,-1.11214 -1.79168,-2.72412 -1.98621,-3.42434 -0.12782,-0.46013 -0.23196,-1.58216 -0.23142,-2.49341 9e-4,-1.81642 0.57544,-3.39497 1.73481,-4.76794 0.34565,-0.40933 0.62845,-0.83753 0.62845,-0.95155 0,-0.11403 -0.73798,-1.48329 -1.63996,-3.04279 l -1.63994,-2.83547 -2.20625,-7e-4 c -1.7647,-7.1e-4 -2.42968,-0.10385 -3.32275,-0.51581 -1.61753,-0.74615 -3.28546,-2.41421 -4.08344,-4.0838 l -0.68596,-1.43524 h -3.46325 -3.46326 l -0.52657,1.27044 c -0.76528,1.8464 -1.93553,3.0845 -3.76744,3.98594 -1.4465,0.71178 -1.77389,0.77917 -3.78515,0.77917 h -2.2017 l -1.6515,2.79156 -1.6515,2.79154 0.70202,0.87713 c 1.84649,2.30706 2.28823,5.4022 1.13157,7.92869 -0.33843,0.7392 -0.8964,1.71253 -1.23995,2.16295 l -0.62464,0.81895 1.71485,3.14902 1.71486,3.14904 h 2.26793 c 1.92972,0 2.44441,0.0867 3.45137,0.58159 1.651,0.81138 3.22693,2.46485 3.90229,4.09428 l 0.56356,1.35968 h 3.5142 c 3.14258,0 3.52712,-0.0438 3.63626,-0.4142 z"
       id="path865"
       inkscape:connector-curvature="0" />
  </g>
</svg>
