<?xml version="1.0" encoding="UTF-8" standalone="no"?>
<!-- Created with Inkscape (http://www.inkscape.org/) -->

<svg
   xmlns:dc="http://purl.org/dc/elements/1.1/"
   xmlns:cc="http://creativecommons.org/ns#"
   xmlns:rdf="http://www.w3.org/1999/02/22-rdf-syntax-ns#"
   xmlns:svg="http://www.w3.org/2000/svg"
   xmlns="http://www.w3.org/2000/svg"
   xmlns:sodipodi="http://sodipodi.sourceforge.net/DTD/sodipodi-0.dtd"
   xmlns:inkscape="http://www.inkscape.org/namespaces/inkscape"
   width="450"
   height="450"
   viewBox="0 0 119.0625 119.0625"
   version="1.1"
   id="svg8"
   sodipodi:docname="fac.svg"
   inkscape:version="0.92.4 (5da689c313, 2019-01-14)">
  <defs
     id="defs2" />
  <sodipodi:namedview
     id="base"
     pagecolor="#ffffff"
     bordercolor="#666666"
     borderopacity="1.0"
     inkscape:pageopacity="0.0"
     inkscape:pageshadow="2"
     inkscape:zoom="0.7"
     inkscape:cx="42.570271"
     inkscape:cy="363.30448"
     inkscape:document-units="mm"
     inkscape:current-layer="layer1"
     showgrid="false"
     units="px"
     inkscape:window-width="1920"
     inkscape:window-height="1017"
     inkscape:window-x="-8"
     inkscape:window-y="-8"
     inkscape:window-maximized="1" />
  <metadata
     id="metadata5">
    <rdf:RDF>
      <cc:Work
         rdf:about="">
        <dc:format>image/svg+xml</dc:format>
        <dc:type
           rdf:resource="http://purl.org/dc/dcmitype/StillImage" />
        <dc:title></dc:title>
      </cc:Work>
    </rdf:RDF>
  </metadata>
  <g
     inkscape:label="Layer 1"
     inkscape:groupmode="layer"
     id="layer1"
     transform="translate(0,-177.93748)">
    <path
       style="fill:#ffffff;stroke-width:0.26305932"
       d="m 60.746903,296.61976 c -0.453721,-0.19743 -2.584497,-1.47638 -4.735068,-2.84211 -2.15057,-1.36572 -5.614045,-3.47069 -7.696599,-4.67771 -6.273396,-3.63595 -6.224509,-3.56382 -5.959116,-8.79212 0.103172,-2.03247 0.220423,-3.72822 0.26055,-3.76836 0.111842,-0.11184 11.504976,6.72042 14.522514,8.7089 3.686582,2.42936 5.242438,2.91622 7.369684,2.30613 0.862563,-0.24738 6.649546,-3.72097 6.65916,-3.99711 0.005,-0.14703 -11.807334,-7.40531 -22.400453,-13.76418 -2.557185,-1.53503 -4.954307,-3.1533 -5.326948,-3.59615 -0.668169,-0.79408 -0.677515,-0.86515 -0.677515,-5.1526 v -4.34741 l -1.185134,-1.31815 c -3.274579,-3.64212 -2.355424,-9.18381 1.94358,-11.71806 0.896834,-0.52867 1.61383,-0.70638 3.226686,-0.79975 1.920891,-0.11119 2.198185,-0.0588 3.76448,0.71237 2.542958,1.25188 3.901915,3.21243 4.243188,6.12157 0.300479,2.56154 -0.97189,5.29261 -3.196203,6.86044 -1.198397,0.84471 -1.206749,0.86113 -1.031743,2.02812 0.467382,3.1167 2.023984,4.66147 8.251714,8.18899 2.11443,1.19766 7.514087,4.42496 11.999243,7.17178 4.485165,2.74682 10.014799,6.11701 12.288079,7.48932 2.273289,1.37232 4.083343,2.57586 4.022356,2.67454 -0.06095,0.0987 -2.927151,1.72091 -6.36924,3.60494 -6.892886,3.77283 -12.355568,6.78674 -15.03575,8.29563 -1.919082,1.08041 -3.429263,1.26729 -4.937465,0.61098 z M 49.203589,253.97363 c 1.169852,-0.55512 2.24048,-2.2922 2.24048,-3.63514 0,-2.29236 -1.850549,-4.13164 -4.175062,-4.14965 -4.516315,-0.035 -5.869654,6.05914 -1.769797,7.96943 1.201827,0.55999 2.244765,0.508 3.704379,-0.18464 z m -22.76187,26.75795 c -3.248917,-2.00091 -7.505208,-4.64502 -9.458422,-5.87579 -1.953224,-1.23078 -4.180938,-2.57569 -4.95048,-2.98868 -0.769541,-0.413 -1.741172,-1.14043 -2.1591706,-1.6165 -1.276812,-1.45421 -1.410369,-2.47725 -1.075479,-8.23816 0.164,-2.82131 0.297099,-7.00085 0.295767,-9.28788 -0.003,-4.60365 0.24854,-6.07278 1.2170686,-7.11729 0.358184,-0.38628 2.084304,-1.41673 3.835817,-2.28989 l 3.18458,-1.58755 -0.17259,6.70727 c -0.09495,3.68899 -0.29685,8.13837 -0.44873,9.88751 -0.43854,5.05052 0.28465,7.40234 2.724257,8.85923 2.583462,1.54281 5.579893,3.17435 5.674465,3.08972 0.113224,-0.10132 0.67482,-14.87109 0.939258,-24.70232 0.177472,-6.59794 0.416477,-8.50326 1.149809,-9.16608 0.24163,-0.21841 1.94863,-1.18475 3.793333,-2.14742 2.778384,-1.44992 3.354009,-1.85151 3.354009,-2.33992 0,-1.15273 0.844109,-3.03917 1.893211,-4.23102 1.51389,-1.71987 2.797583,-2.307 5.340918,-2.44282 1.982395,-0.10586 2.20242,-0.0613 3.792876,0.76883 3.874652,2.02228 5.265425,6.85213 3.057814,10.61913 -1.719189,2.93357 -6.145486,4.45679 -9.215172,3.17124 -1.34801,-0.56454 -1.867371,-0.41598 -3.216883,0.92018 -1.765929,1.74845 -2.108912,3.22566 -2.286085,9.846 -0.428895,16.02609 -1.048098,33.43221 -1.195444,33.60439 -0.09217,0.10771 -2.825809,-1.44126 -6.074727,-3.44218 z m 17.460394,-44.36623 c 1.915642,-0.91463 2.751101,-3.46702 1.786838,-5.45893 -1.906177,-3.93764 -7.919598,-2.6305 -7.922988,1.72222 -0.002,2.02827 0.902889,3.3231 2.809493,4.02204 1.102691,0.40423 2.053135,0.32271 3.326657,-0.28533 z m 47.000851,38.73683 c -0.361704,-0.18224 -1.812062,-1.09011 -3.223007,-2.01748 l -2.565358,-1.68612 0.723946,-0.43663 c 1.710351,-1.03156 11.748625,-6.63812 14.349225,-8.01431 1.56192,-0.82653 3.26199,-1.92493 3.77794,-2.44087 1.53577,-1.53578 1.72903,-2.3083 1.69044,-6.75772 -0.0188,-2.1655 -0.061,-3.9598 -0.0938,-3.98732 -0.0795,-0.0667 -7.0113,3.79685 -17.947655,10.00339 -10.728366,6.08851 -10.422717,5.93016 -11.447311,5.93016 -0.971541,0 -1.084566,-0.0544 -5.046463,-2.42669 -2.900814,-1.73697 -3.126139,-1.82606 -3.919383,-1.54953 -0.462898,0.16136 -1.453947,0.29339 -2.202341,0.29339 -4.107106,0 -7.548567,-3.34148 -7.567876,-7.34801 -0.01402,-2.9118 1.068828,-5.0276 3.344653,-6.53505 2.431295,-1.61043 5.579486,-1.67921 8.186104,-0.17885 1.935944,1.11432 3.510781,3.78281 3.520922,5.96608 0.005,1.12227 0.08521,1.28384 0.824563,1.66619 1.292909,0.66859 3.413553,0.78129 4.991243,0.26526 0.75258,-0.24616 4.399482,-2.19963 8.104228,-4.34105 10.983616,-6.34875 27.138306,-15.34677 27.286646,-15.19842 0.0758,0.0758 0.0404,6.23449 -0.0787,13.68601 l -0.21646,13.54824 -0.81182,1.00258 c -0.598,0.73852 -1.98614,1.62823 -5.27042,3.37798 -2.45223,1.30648 -6.33376,3.49352 -8.62561,4.86008 -3.75429,2.23858 -4.31353,2.49286 -5.646537,2.56735 -0.836077,0.0467 -1.765562,-0.0614 -2.137189,-0.24866 z m -23.448263,-17.311 c 1.134388,-0.83525 1.658184,-1.87293 1.658184,-3.28505 0,-3.09606 -2.827996,-5.04742 -5.716313,-3.94436 -1.351858,0.51628 -2.409421,1.85328 -2.65294,3.35394 -0.215979,1.33095 0.661179,3.15573 1.923327,4.00112 1.340941,0.89816 3.473238,0.84221 4.787742,-0.12565 z m 7.848321,-9.31153 c -4.39635,-1.56814 -6.400141,-6.47019 -4.313947,-10.55358 1.924023,-3.76595 6.138079,-5.17774 10.217783,-3.42315 0.869364,0.37389 2.800565,-1.82945 3.427682,-3.91069 0.139572,-0.46319 0.23303,-9.31466 0.220284,-20.86281 -0.01213,-11.03205 0.02645,-20.05827 0.0859,-20.05827 0.144702,0 10.536199,5.99123 14.965746,8.62851 1.94455,1.15776 4.29517,2.48488 5.22358,2.94915 2.33037,1.16535 3.24395,1.90399 3.8009,3.07304 0.43171,0.9062 0.48117,1.93848 0.52066,10.86605 0.024,5.42559 -0.0654,10.33823 -0.19877,10.91696 -0.3254,1.41257 -1.73524,2.81712 -3.71689,3.70301 -0.88635,0.39622 -2.07105,1.00902 -2.63268,1.36178 -0.82329,0.51709 -1.06752,0.57277 -1.26048,0.28735 -0.13701,-0.20265 -0.20653,-4.79654 -0.16262,-10.74486 l 0.0767,-10.39084 -0.61237,-1.24338 c -0.33681,-0.68387 -0.97492,-1.54846 -1.41803,-1.92131 -0.66612,-0.56051 -6.276918,-3.54332 -6.665129,-3.54332 -0.06433,0 -0.116953,7.20331 -0.116953,16.00737 0,10.75513 -0.09296,16.27399 -0.283289,16.82 -0.349604,1.00289 -1.239618,1.69029 -4.485831,3.46459 -2.53034,1.38302 -2.533293,1.38583 -2.694291,2.56045 -0.336411,2.45438 -1.7847,4.40052 -4.156996,5.58597 -1.823307,0.91112 -4.014741,1.07224 -5.820947,0.42798 z m 4.233344,-3.32322 c 1.237272,-0.43132 2.234028,-1.91861 2.367932,-3.53326 0.135843,-1.63808 -0.336322,-2.69249 -1.656642,-3.69954 -3.159019,-2.40951 -7.650855,0.75856 -6.436352,4.53953 0.78713,2.45046 3.185287,3.57865 5.725062,2.69327 z M 5.5193533,231.58573 c 0.1025459,-3.01448 0.2947225,-7.19734 0.4270561,-9.29523 0.132333,-2.0979 0.243718,-5.35326 0.247496,-7.23413 0.01223,-6.0742 0.150041,-6.25299 7.7451776,-10.04903 3.048797,-1.52378 6.351493,-3.24084 7.3393,-3.81567 3.562123,-2.0729 4.794414,-2.57651 6.304475,-2.57651 1.158091,0 1.636827,0.14926 2.579585,0.80421 0.636672,0.44232 1.956625,1.34751 2.933237,2.01155 0.976612,0.66403 1.775653,1.28754 1.775653,1.38559 0,0.21349 -7.8883,4.38078 -13.942147,7.36545 -4.694164,2.31432 -5.476552,2.89401 -6.379858,4.72697 -0.531372,1.07823 -0.591215,1.58956 -0.591215,5.05104 v 3.85136 l 1.052234,-0.53483 c 1.03742,-0.52731 15.514576,-8.06061 23.634544,-12.29841 5.298125,-2.76509 5.276281,-2.76404 8.93588,-0.43108 l 2.736158,1.74428 0.89239,-0.45887 c 1.309871,-0.67355 5.001523,-0.63828 6.416645,0.0613 2.709334,1.3394 4.52571,4.48225 4.236466,7.33032 -0.434264,4.27597 -3.418843,7.0869 -7.524716,7.0869 -3.713943,0 -6.862671,-2.59905 -7.511402,-6.20012 -0.245826,-1.36463 -1.383088,-1.85573 -3.931672,-1.69783 -2.058037,0.12751 -2.74978,0.43504 -10.785435,4.79491 -3.923102,2.12853 -19.373291,10.1443 -24.8312306,12.88277 l -1.9450709,0.97591 z m 50.9587807,-9.18229 c 1.881788,-0.97311 2.612236,-3.80763 1.486577,-5.76872 -0.807412,-1.40666 -2.560078,-2.328 -4.009431,-2.10767 -2.937651,0.44655 -4.640983,3.4685 -3.413295,6.05566 1.044986,2.20214 3.652181,3.00182 5.936149,1.82073 z m 14.432326,9.38788 c -3.582892,-1.16798 -5.656101,-3.93905 -5.63206,-7.52787 0.01561,-2.33 0.825815,-4.01778 2.766154,-5.76231 l 1.37216,-1.23368 -0.304784,-1.32035 c -0.362599,-1.57087 -1.496619,-3.30408 -2.865131,-4.37895 -0.545668,-0.4286 -2.945336,-1.99827 -5.332595,-3.48815 -3.447994,-2.1519 -22.940923,-14.88325 -26.757581,-17.47609 l -0.846227,-0.57489 9.658722,-4.82253 c 5.312294,-2.65239 10.428165,-5.26509 11.368596,-5.806 2.408566,-1.38533 3.56089,-1.69097 4.957519,-1.3149 0.636463,0.17139 3.194433,1.69182 5.90845,3.51191 2.632329,1.76532 6.359377,4.19552 8.282306,5.40043 4.029744,2.52502 4.865303,3.46908 4.874898,5.50791 0.008,1.75995 -0.401584,6.63543 -0.557829,6.63543 -0.179371,0 -9.645777,-6.14733 -14.026159,-9.10836 -5.299786,-3.58252 -6.433001,-3.65445 -11.43539,-0.72583 -1.66047,0.97211 -2.926396,1.85395 -2.813181,1.95965 0.253501,0.23667 18.04427,11.89145 23.062,15.10798 2.170963,1.39165 3.860226,2.66712 4.164076,3.14407 0.465692,0.73101 0.497627,1.1356 0.358373,4.54055 l -0.152864,3.73802 1.168172,1.20197 c 3.705234,3.8124 2.620707,9.95229 -2.168238,12.27525 -1.313093,0.63693 -3.876074,0.89922 -5.049387,0.51674 z m 4.162774,-3.89826 c 2.512772,-1.86106 2.50611,-5.36141 -0.01332,-6.99502 -2.995745,-1.94248 -6.846615,0.39058 -6.450171,3.90785 0.155648,1.38091 1.216064,2.89821 2.400423,3.4347 1.089259,0.49339 3.167668,0.31562 4.063051,-0.34753 z"
       id="path863"
       inkscape:connector-curvature="0" />
  </g>
</svg>
