<?xml version="1.0" encoding="UTF-8" standalone="no"?>
<svg
   xmlns:dc="http://purl.org/dc/elements/1.1/"
   xmlns:cc="http://creativecommons.org/ns#"
   xmlns:rdf="http://www.w3.org/1999/02/22-rdf-syntax-ns#"
   xmlns:svg="http://www.w3.org/2000/svg"
   xmlns="http://www.w3.org/2000/svg"
   xmlns:sodipodi="http://sodipodi.sourceforge.net/DTD/sodipodi-0.dtd"
   xmlns:inkscape="http://www.inkscape.org/namespaces/inkscape"
   height="512pt"
   viewBox="0 0 512 512"
   width="512pt"
   version="1.1"
   id="svg4"
   sodipodi:docname="036-factory.svg"
   inkscape:version="0.92.4 (5da689c313, 2019-01-14)">
  <metadata
     id="metadata10">
    <rdf:RDF>
      <cc:Work
         rdf:about="">
        <dc:format>image/svg+xml</dc:format>
        <dc:type
           rdf:resource="http://purl.org/dc/dcmitype/StillImage" />
        <dc:title></dc:title>
      </cc:Work>
    </rdf:RDF>
  </metadata>
  <defs
     id="defs8" />
  <sodipodi:namedview
     pagecolor="#ffffff"
     bordercolor="#666666"
     borderopacity="1"
     objecttolerance="10"
     gridtolerance="10"
     guidetolerance="10"
     inkscape:pageopacity="0"
     inkscape:pageshadow="2"
     inkscape:window-width="1005"
     inkscape:window-height="480"
     id="namedview6"
     showgrid="false"
     inkscape:zoom="0.17285156"
     inkscape:cx="162.27943"
     inkscape:cy="289.2862"
     inkscape:window-x="0"
     inkscape:window-y="0"
     inkscape:window-maximized="0"
     inkscape:current-layer="svg4" />
  <path
     d="m492 349c11.046875 0 20-8.953125 20-20v-16c0-34.265625-21.660156-63.554688-52-74.933594v-57.066406c0-11.046875-8.953125-20-20-20s-20 8.953125-20 20v52h-40v-112c0-11.046875-8.953125-20-20-20s-20 8.953125-20 20v112h-46.488281l-24.707031-174.800781c-1.398438-9.863281-9.839844-17.199219-19.804688-17.199219h-65c-11.046875 0-20 8.953125-20 20v172h-26.851562l-33.382813-216.054688c-1.507813-9.75-9.898437-16.945312-19.765625-16.945312h-64c-11.046875 0-20 8.953125-20 20v472c0 11.046875 8.953125 20 20 20h472c11.046875 0 20-8.953125 20-20v-68c0-11.046875-8.953125-20-20-20s-20 8.953125-20 20v48h-276v-60c0-11.046875-8.953125-20-20-20s-20 8.953125-20 20v60h-40v-60c0-11.046875-8.953125-20-20-20s-20 8.953125-20 20v60h-36v-432h26.851562l33.382813 216.054688c1.507813 9.75 9.898437 16.945312 19.765625 16.945312h312c22.054688 0 40 17.945312 40 40v16c0 11.046875 8.953125 20 20 20zm-288-268h27.628906l21.484375 152h-49.113281zm232 331c0 11.046875-8.953125 20-20 20s-20-8.953125-20-20 8.953125-20 20-20 20 8.953125 20 20zm-80 0c0 11.046875-8.953125 20-20 20s-20-8.953125-20-20 8.953125-20 20-20 20 8.953125 20 20zm-80 0c0 11.046875-8.953125 20-20 20s-20-8.953125-20-20 8.953125-20 20-20 20 8.953125 20 20zm160-80c0 11.046875-8.953125 20-20 20s-20-8.953125-20-20 8.953125-20 20-20 20 8.953125 20 20zm-80 0c0 11.046875-8.953125 20-20 20s-20-8.953125-20-20 8.953125-20 20-20 20 8.953125 20 20zm-80 0c0 11.046875-8.953125 20-20 20s-20-8.953125-20-20 8.953125-20 20-20 20 8.953125 20 20zm-100-20c11.046875 0 20 8.953125 20 20s-8.953125 20-20 20-20-8.953125-20-20 8.953125-20 20-20zm-80 0c11.046875 0 20 8.953125 20 20s-8.953125 20-20 20-20-8.953125-20-20 8.953125-20 20-20zm0 0"
     id="path2"
     style="fill:#ffffff" />
</svg>
