<?xml version="1.0" encoding="UTF-8" standalone="no"?>
<!-- Created with Inkscape (http://www.inkscape.org/) -->

<svg
   xmlns:dc="http://purl.org/dc/elements/1.1/"
   xmlns:cc="http://creativecommons.org/ns#"
   xmlns:rdf="http://www.w3.org/1999/02/22-rdf-syntax-ns#"
   xmlns:svg="http://www.w3.org/2000/svg"
   xmlns="http://www.w3.org/2000/svg"
   xmlns:sodipodi="http://sodipodi.sourceforge.net/DTD/sodipodi-0.dtd"
   xmlns:inkscape="http://www.inkscape.org/namespaces/inkscape"
   width="450"
   height="450"
   viewBox="0 0 119.0625 119.0625"
   version="1.1"
   id="svg8"
   sodipodi:docname="like.svg"
   inkscape:version="0.92.4 (5da689c313, 2019-01-14)">
  <defs
     id="defs2" />
  <sodipodi:namedview
     id="base"
     pagecolor="#ffffff"
     bordercolor="#666666"
     borderopacity="1.0"
     inkscape:pageopacity="0.0"
     inkscape:pageshadow="2"
     inkscape:zoom="0.7"
     inkscape:cx="42.570271"
     inkscape:cy="363.30448"
     inkscape:document-units="mm"
     inkscape:current-layer="layer1"
     showgrid="false"
     units="px"
     inkscape:window-width="1920"
     inkscape:window-height="1017"
     inkscape:window-x="-8"
     inkscape:window-y="-8"
     inkscape:window-maximized="1" />
  <metadata
     id="metadata5">
    <rdf:RDF>
      <cc:Work
         rdf:about="">
        <dc:format>image/svg+xml</dc:format>
        <dc:type
           rdf:resource="http://purl.org/dc/dcmitype/StillImage" />
        <dc:title></dc:title>
      </cc:Work>
    </rdf:RDF>
  </metadata>
  <g
     inkscape:label="Layer 1"
     inkscape:groupmode="layer"
     id="layer1"
     transform="translate(0,-177.93748)">
    <path
       style="fill:#ffffff;stroke-width:0.21972866"
       d="m 26.699944,296.71235 c -0.3626,-0.15803 -0.79668,-0.45289 -0.96463,-0.65525 -0.16794,-0.20237 -1.3672,-4.07828 -2.66503,-8.61315 -1.29782,-4.53487 -2.42151,-8.30705 -2.49708,-8.38263 -0.0756,-0.0756 -4.01793,0.6243 -8.76078,1.55528 -4.7428596,0.93098 -8.9721596,1.68948 -9.3984596,1.68557 -1.74622998,-0.016 -2.97228998,-2.05974 -2.15499998,-3.59215 0.14078,-0.26397 5.23298998,-8.22247 11.31601958,-17.68556 6.08303,-9.46309 11.06006,-17.24089 11.06006,-17.284 0,-0.0431 -0.88946,-0.63959 -1.97657,-1.32554 -2.23567,-1.41066 -2.85746,-2.07195 -2.85746,-3.03895 0,-0.36955 0.36412,-2.43537 0.80916,-4.5907 l 0.80917,-3.91877 -2.33405,-3.4547 c -1.28374,-1.90009 -2.39664,-3.71259 -2.47312,-4.02776 -0.20344,-0.83831 0.24448,-1.72397 2.65549,-5.25057 l 2.16068,-3.16046 -0.81552,-3.96751 c -0.44853,-2.18213 -0.81468,-4.18534 -0.81366,-4.45157 0.004,-1.15154 0.5501,-1.68526 4.06563,-3.97644 1.93427,-1.26062 3.54986,-2.32185 3.5902,-2.35828 0.0404,-0.0365 0.45274,-1.97634 0.91646,-4.31089 1.08685,-5.4716 0.76455,-5.14042 5.95602,-6.12003 2.10149,-0.39654 3.98676,-0.78101 4.18949,-0.85438 0.20274,-0.0733 1.45,-1.77388 2.7717,-3.7789 1.3217,-2.00503 2.57292,-3.71067 2.7805,-3.79032 0.70076,-0.26891 1.79165,-0.14755 5.61948,0.62514 l 3.81431,0.76996 3.49315,-2.3087 c 1.92122,-1.26978 3.73169,-2.36857 4.02325,-2.44175 0.90306,-0.22665 1.51514,0.0683 5.08102,2.44829 l 3.45565,2.30645 3.85203,-0.77294 c 4.33328,-0.86951 5.18619,-0.92506 5.86347,-0.38187 0.26033,0.20881 1.47764,1.93007 2.70511,3.82505 l 2.23177,3.4454 1.03027,0.22043 c 0.56665,0.12124 2.45506,0.4897 4.19647,0.8188 4.42127,0.83556 4.20765,0.59199 5.25696,5.99443 l 0.82671,4.25639 3.17544,2.07016 c 3.590666,2.34085 4.325256,2.94968 4.526516,3.75154 0.0827,0.32952 -0.19092,2.17192 -0.65983,4.44285 -0.44062,2.13391 -0.801126,4.06462 -0.801126,4.29044 0,0.22582 0.996866,1.88051 2.215266,3.67707 1.21839,1.79658 2.30249,3.57068 2.40912,3.94245 0.27011,0.94181 -0.0604,1.62924 -2.52932,5.26101 -1.15228,1.69501 -2.096136,3.2485 -2.097436,3.4522 -0.002,0.20371 0.363326,2.15903 0.810306,4.34518 1.01437,4.96131 1.04327,4.85175 -1.775476,6.72832 -1.09934,0.73188 -2.0765,1.40016 -2.17149,1.48507 -0.095,0.0849 4.840216,7.95724 10.967106,17.49406 6.12689,9.53683 11.23602,17.65051 11.35361,18.03041 0.28285,0.91378 0.0779,1.63641 -0.70053,2.46969 -0.49786,0.53296 -0.82726,0.68641 -1.48542,0.69195 -0.46513,0.004 -4.7262,-0.75459 -9.46906,-1.68557 -4.74284,-0.93098 -8.685556,-1.63049 -8.761576,-1.55446 -0.0761,0.076 -1.15365,3.67726 -2.39471,8.00277 -1.24107,4.3255 -2.36143,8.13129 -2.48969,8.4573 -0.49513,1.25848 -2.46758,1.85283 -3.65862,1.10243 -0.48658,-0.30656 -3.23444,-4.70658 -10.49389,-16.80338 l -9.83469,-16.38807 -1.04187,-0.22398 -1.04188,-0.22399 -3.57049,2.40387 c -4.68322,3.15303 -4.21599,3.15303 -8.89922,0 l -3.57049,-2.40387 -1.04187,0.22399 -1.04188,0.22398 -9.8347,16.38807 c -7.36608,12.27451 -10.00015,16.48921 -10.49387,16.79102 -0.76974,0.47053 -1.49791,0.50067 -2.4171,0.10007 z m 8.93606,-20.59623 6.87017,-11.45242 -0.62293,-0.49672 c -0.34262,-0.2732 -1.62482,-2.01617 -2.84932,-3.87327 l -2.22638,-3.37655 -4.01469,-0.78972 c -2.20808,-0.43435 -4.26823,-0.92542 -4.57812,-1.09126 -0.79541,-0.4257 -1.05268,-1.0611 -1.62378,-4.01039 -0.27634,-1.42706 -0.58157,-2.51472 -0.67829,-2.41702 -0.31869,0.32193 -17.5511996,27.17645 -17.4829096,27.24474 0.0367,0.0367 3.0207896,-0.52592 6.6312696,-1.25029 3.61047,-0.72437 6.99928,-1.31705 7.53069,-1.31705 0.79891,0 1.08829,0.12364 1.67143,0.71413 0.71482,0.72381 0.81402,1.03327 4.2262,13.18372 0.0594,0.21148 0.1459,0.38452 0.19224,0.38452 0.0463,0 3.17583,-5.15359 6.95442,-11.45242 z m 56.77575,4.64083 c 1.52986,-5.37834 1.79631,-6.12104 2.42403,-6.75665 0.58353,-0.59088 0.87229,-0.71413 1.67321,-0.71413 0.53239,0 3.919696,0.59418 7.527356,1.32039 3.60764,0.72623 6.59053,1.28923 6.62861,1.25115 0.058,-0.058 -3.52827,-5.68186 -15.984076,-25.06462 -0.84399,-1.31334 -1.57916,-2.34327 -1.63371,-2.28872 -0.0546,0.0546 -0.34292,1.32156 -0.64081,2.81556 -0.76678,3.84564 -0.64922,3.7517 -5.96968,4.77046 l -4.17301,0.79906 -2.36059,3.55442 c -1.45291,2.1877 -2.5733,3.65134 -2.9138,3.80648 l -0.55322,0.25207 0.43236,0.71142 c 0.23779,0.39129 3.32039,5.507 6.85022,11.36826 3.52984,5.86127 6.47353,10.74791 6.54155,10.85921 0.16829,0.2754 0.19903,0.17991 2.15156,-6.68436 z m -29.32867,-21.14247 3.28918,-2.24579 3.56498,0.7417 c 1.96075,0.40795 3.78247,0.78642 4.04828,0.84106 0.41481,0.0853 0.78417,-0.35613 2.60678,-3.11524 1.16792,-1.76802 2.32031,-3.35244 2.56087,-3.52094 0.24057,-0.16849 2.14961,-0.62823 4.24232,-1.02164 l 3.80494,-0.71528 0.70142,-3.75243 c 0.38579,-2.06385 0.84597,-3.98273 1.02265,-4.26419 0.17667,-0.28147 1.74755,-1.44197 3.49085,-2.57888 1.74329,-1.13691 3.16961,-2.1921 3.16961,-2.34486 0,-0.15276 -0.34501,-1.89015 -0.7667,-3.86086 -0.91419,-4.27239 -1.0269,-3.7853 1.84387,-7.96904 l 1.98942,-2.8993 -2.10895,-3.08478 c -1.15992,-1.69664 -2.18677,-3.35616 -2.2819,-3.68783 -0.11813,-0.41192 0.0643,-1.72931 0.57566,-4.15664 0.41173,-1.95447 0.7486,-3.67469 0.7486,-3.8227 0,-0.14801 -1.47515,-1.23625 -3.27814,-2.4183 -2.23133,-1.46288 -3.3537,-2.33529 -3.51477,-2.73201 -0.13016,-0.32057 -0.53155,-2.15782 -0.89198,-4.08279 -0.36042,-1.92496 -0.73161,-3.56502 -0.82486,-3.64457 -0.0932,-0.0796 -1.70214,-0.41958 -3.57532,-0.75564 -1.87319,-0.33606 -3.70243,-0.74982 -4.06498,-0.91947 -0.46396,-0.21711 -1.29709,-1.27427 -2.81306,-3.56948 l -2.15388,-3.26102 -3.44921,0.73253 c -1.89706,0.40289 -3.76745,0.73535 -4.15643,0.73881 -0.53646,0.005 -1.42684,-0.48448 -3.68754,-2.02621 -1.63917,-1.11787 -3.12545,-2.13086 -3.30282,-2.2511 -0.2139,-0.14498 -0.43196,-0.14498 -0.64753,0 -0.17875,0.12024 -1.68535,1.14484 -3.348,2.27689 l -3.02299,2.05829 -1.21136,-0.12922 c -0.66625,-0.0711 -2.53126,-0.41942 -4.14445,-0.77411 l -2.93309,-0.64488 -2.07421,3.1737 c -1.20476,1.84337 -2.34198,3.33655 -2.713,3.56218 -0.35133,0.21366 -2.23755,0.67508 -4.19158,1.02539 -3.03722,0.54449 -3.57993,0.70214 -3.73973,1.08632 -0.10282,0.24717 -0.44608,1.88313 -0.76281,3.63546 -0.31674,1.75234 -0.69095,3.43327 -0.83158,3.73539 -0.14967,0.32156 -1.57669,1.43866 -3.44175,2.69426 -1.79135,1.20599 -3.21399,2.31468 -3.24985,2.53267 -0.035,0.21324 0.23684,1.79758 0.60426,3.52075 0.36742,1.72317 0.66803,3.48332 0.66803,3.91145 0,0.6255 -0.43674,1.41832 -2.22313,4.03563 l -2.22314,3.25721 1.42237,2.05416 c 3.00326,4.33724 3.0239,4.37311 3.0239,5.25452 0,0.67672 -1.10016,6.38185 -1.42128,7.37036 -0.0435,0.13391 1.35989,1.17213 3.11864,2.30715 1.75875,1.13502 3.35089,2.29715 3.53808,2.58251 0.18719,0.28536 0.66531,2.20271 1.06249,4.26078 0.39718,2.05807 0.74939,3.76269 0.7827,3.78807 0.0333,0.0253 1.49428,0.31564 3.24661,0.64506 5.09588,0.95798 4.75578,0.74553 7.19264,4.49295 1.14928,1.76738 2.12441,3.25205 2.16693,3.29925 0.0425,0.0472 1.79456,-0.27997 3.89339,-0.72707 2.16118,-0.46038 4.0456,-0.75284 4.34536,-0.67442 0.29112,0.0762 1.86415,1.0665 3.49564,2.20074 1.63148,1.13425 3.09549,2.06655 3.25335,2.07176 0.15786,0.005 1.76714,-1.00111 3.5762,-2.23631 z m -9.10537,-5.46551 c -11.29372,-1.96475 -20.86652,-10.25102 -24.51294,-21.21853 -1.09736,-3.30056 -1.36726,-4.96688 -1.48908,-9.19308 -0.12491,-4.33364 0.0934,-6.22904 1.13874,-9.88779 0.75504,-2.64259 3.04611,-7.27057 4.73519,-9.56511 4.86291,-6.60603 12.27111,-11.21651 20.31649,-12.64392 2.94924,-0.52325 7.8254,-0.52245 10.76671,0.002 13.57954,2.4203 23.9398,13.12111 25.95249,26.8056 0.50358,3.42394 0.32161,8.39588 -0.42278,11.55171 -1.44746,6.13643 -4.47453,11.40503 -9.09792,15.83486 -5.99408,5.74313 -13.72232,8.81505 -22.01838,8.75213 -1.83441,-0.014 -3.90135,-0.18241 -5.36852,-0.43766 z m 10.55942,-5.2676 c 6.40687,-1.22668 12.29099,-4.95041 16.30788,-10.32034 4.03802,-5.3982 5.8034,-12.4989 4.83625,-19.4524 -0.77892,-5.60025 -3.78758,-11.462 -7.8502,-15.29447 -5.11967,-4.82963 -11.21252,-7.27559 -18.17174,-7.295 -4.48594,-0.0125 -7.90197,0.76569 -11.87993,2.70639 -7.35904,3.5902 -12.69506,10.60826 -14.27955,18.78079 -0.43602,2.2489 -0.43163,6.8885 0.009,9.41469 2.54446,14.59098 16.4987,24.24223 31.0284,21.46034 z m -16.85302,-18.24772 c -4.41105,-3.86872 -8.0201,-7.13739 -8.0201,-7.26368 0,-0.22608 4.72993,-5.84897 4.9439,-5.87727 0.0605,-0.008 2.47338,2.06122 5.36211,4.59823 2.88873,2.53702 5.31081,4.61277 5.38239,4.61277 0.0716,0 4.30765,-4.17664 9.41348,-9.28141 l 9.28334,-9.28139 2.74777,2.74117 c 1.51128,1.50765 2.73186,2.84154 2.71242,2.9642 -0.0194,0.12267 -5.38358,5.53267 -11.92028,12.02223 l -11.88494,11.79921 z"
       id="path867"
       inkscape:connector-curvature="0" />
  </g>
</svg>
