<?xml version="1.0" encoding="UTF-8" standalone="no"?>
<!-- Created with Inkscape (http://www.inkscape.org/) -->

<svg
   width="615mm"
   height="120mm"
   viewBox="0 0 615 120"
   version="1.1"
   id="svg5"
   xml:space="preserve"
   inkscape:version="1.2.2 (732a01da63, 2022-12-09)"
   sodipodi:docname="burger.svg"
   xmlns:inkscape="http://www.inkscape.org/namespaces/inkscape"
   xmlns:sodipodi="http://sodipodi.sourceforge.net/DTD/sodipodi-0.dtd"
   xmlns="http://www.w3.org/2000/svg"
   xmlns:svg="http://www.w3.org/2000/svg"><sodipodi:namedview
     id="namedview7"
     pagecolor="#505050"
     bordercolor="#ffffff"
     borderopacity="1"
     inkscape:showpageshadow="0"
     inkscape:pageopacity="0"
     inkscape:pagecheckerboard="1"
     inkscape:deskcolor="#505050"
     inkscape:document-units="mm"
     showgrid="false"
     showguides="true"
     inkscape:zoom="0.52724989"
     inkscape:cx="1908.0137"
     inkscape:cy="191.56002"
     inkscape:window-width="1920"
     inkscape:window-height="1017"
     inkscape:window-x="1272"
     inkscape:window-y="-8"
     inkscape:window-maximized="1"
     inkscape:current-layer="layer1"><sodipodi:guide
       position="82.677417,-13.774194"
       orientation="0,-1"
       id="guide304"
       inkscape:locked="false" /></sodipodi:namedview><defs
     id="defs2" /><g
     inkscape:label="Ğ¨Ğ°Ñ€ 1"
     inkscape:groupmode="layer"
     id="layer1"><path
       style="fill:#ffffff;stroke-width:0.264583"
       d="m 240.06188,116.86562 c -8.0924,-1.22799 -14.81917,-6.2929 -18.16867,-13.68007 -1.68785,-3.722458 -2.47664,-9.812849 -1.50121,-11.590953 0.56021,-1.021185 1.70986,-2.170845 2.73105,-2.731047 0.73688,-0.404241 5.08338,-0.438454 55.70029,-0.438454 h 54.90103 l 1.17888,0.661458 c 0.64838,0.363802 1.54135,1.178967 1.98438,1.81148 0.78049,1.11433 0.80472,1.237512 0.78059,3.96875 -0.0408,4.612708 -1.53823,8.875316 -4.50717,12.829696 -3.78328,5.03903 -9.32347,8.30441 -15.52926,9.15292 -2.4027,0.32852 -75.41126,0.34379 -77.56991,0.0162 z m 77.93791,-11.26858 c 2.63293,-0.7747 5.19893,-2.67185 6.81954,-5.04196 0.31387,-0.45902 0.57067,-0.905508 0.57067,-0.992178 0,-0.0867 -20.96172,-0.1576 -46.58162,-0.1576 h -46.58162 l 0.47797,0.853968 c 1.2378,2.21146 4.46724,4.62448 7.19641,5.37711 0.95752,0.26406 9.31215,0.34126 38.94032,0.35985 33.82859,0.0212 37.86954,-0.02 39.15833,-0.39919 z M 253.95251,85.199134 c -3.22347,-0.541864 -6.8157,-2.001829 -9.58211,-3.894391 -2.34292,-1.602836 -3.63435,-2.214931 -5.69194,-2.697779 -3.11485,-0.730954 -5.97472,-0.144942 -9.4645,1.939353 -1.9222,1.148054 -2.26251,1.262229 -3.70416,1.242812 -1.83115,-0.02466 -2.92544,-0.50754 -3.97733,-1.75505 -2.97606,-3.529526 -1.42548,-7.357984 4.09735,-10.116511 4.04298,-2.019379 7.12811,-2.661362 11.76033,-2.447203 4.83921,0.223729 7.87997,1.273416 12.71352,4.388792 3.07184,1.979901 4.70133,2.536002 7.42071,2.532507 2.84336,-0.0037 4.60351,-0.588549 7.50543,-2.494055 2.95182,-1.938271 4.13711,-2.551639 6.4529,-3.33929 2.61512,-0.889461 5.65753,-1.262094 8.8983,-1.089864 4.54424,0.241501 7.99182,1.478923 12.29979,4.414692 3.41351,2.326219 6.68182,3.069873 10.03166,2.282547 2.10576,-0.494924 2.85435,-0.849765 5.34734,-2.534708 2.22721,-1.505313 3.71647,-2.282804 5.67581,-2.963164 6.70304,-2.327548 14.3322,-1.468173 20.10213,2.264376 2.91206,1.883804 3.72309,3.080856 3.72309,5.495165 0,1.722448 -0.48461,2.795945 -1.79664,3.979849 -2.09401,1.889533 -4.46331,1.948845 -7.18568,0.179883 -2.44496,-1.588707 -4.23767,-2.157058 -6.89268,-2.185228 -2.97394,-0.03155 -4.64845,0.510772 -7.63772,2.473632 -2.95181,1.938271 -4.13709,2.551639 -6.45289,3.33929 -2.61512,0.88946 -5.65753,1.262094 -8.8983,1.089864 -4.51144,-0.239758 -7.69749,-1.372733 -12.27812,-4.366147 -3.72324,-2.433116 -6.68982,-3.121646 -10.0485,-2.332214 -2.12507,0.499483 -3.09755,0.972021 -6.00397,2.917399 -2.5288,1.692627 -5.65376,2.977028 -8.47632,3.48389 -1.85235,0.332637 -6.43965,0.443341 -7.9375,0.191553 z M 223.12855,63.248232 c -1.29365,-0.679844 -2.47713,-1.962171 -2.9474,-3.193577 -0.36368,-0.952277 -0.41094,-1.715899 -0.27127,-4.383039 1.82148,-34.783115 36.50029,-59.2428698 72.67179,-51.257081 3.9409,0.870053 9.31647,2.7837216 13.40421,4.7718086 15.14294,7.3648274 26.15793,20.6147104 30.11499,36.2251984 1.26701,4.998355 1.98801,11.967295 1.45649,14.078133 -0.38913,1.545397 -1.63094,3.064938 -3.02052,3.696073 -1.03671,0.470863 -3.12826,0.489005 -55.84579,0.484402 -49.34765,-0.0043 -54.84732,-0.04607 -55.5625,-0.421918 z M 326.28779,51.978741 C 325.521,47.502682 323.76032,42.225676 321.89594,38.815721 315.05563,26.3048 303.52462,17.970359 288.70218,14.823769 c -3.13235,-0.664952 -3.88019,-0.722032 -9.61426,-0.733814 -6.34492,-0.01304 -7.92549,0.142768 -12.30312,1.212796 -6.1432,1.501583 -11.05983,3.670919 -16.49947,7.279963 -4.0835,2.709276 -9.47265,8.03952 -12.02868,11.897195 -3.34004,5.040921 -5.32425,9.620213 -6.5218,15.051437 -0.28878,1.309687 -0.52763,2.589609 -0.53078,2.84427 -0.005,0.439277 2.43602,0.463021 47.61266,0.463021 h 47.61837 z"
       id="path302" /><path
       style="fill:#ffffff;stroke-width:0.264583"
       d="m 21.827903,116.86562 c -8.0924,-1.22799 -14.8191699,-6.2929 -18.1686796,-13.68007 -1.68784,-3.72246 -2.47664,-9.812851 -1.5012,-11.590955 0.5602,-1.021185 1.70986,-2.170845 2.73105,-2.731047 0.73688,-0.404241 5.08338,-0.438454 55.7002796,-0.438454 h 54.901037 l 1.17888,0.661458 c 0.64838,0.363802 1.54135,1.178967 1.98438,1.81148 0.78049,1.11433 0.80472,1.237512 0.78059,3.96875 -0.0408,4.612708 -1.53823,8.875318 -4.50717,12.829698 -3.78328,5.03903 -9.32347,8.30441 -15.529264,9.15292 -2.402692,0.32852 -75.411253,0.34379 -77.569903,0.0162 z m 77.937903,-11.26858 c 2.632934,-0.7747 5.198934,-2.67185 6.819544,-5.04196 0.31387,-0.45902 0.57067,-0.90551 0.57067,-0.99218 0,-0.0867 -20.961727,-0.1576 -46.581627,-0.1576 h -46.58162 l 0.47798,0.85397 c 1.23779,2.21146 4.46724,4.62448 7.19641,5.37711 0.95752,0.26406 9.31214,0.34126 38.94032,0.35985 33.82859,0.0212 37.869531,-0.02 39.158323,-0.39919 z M 35.718523,85.199132 c -3.22346,-0.541864 -6.81569,-2.001829 -9.58211,-3.894391 -2.34291,-1.602836 -3.63435,-2.214931 -5.69193,-2.697779 -3.11486,-0.730954 -5.97472,-0.144942 -9.4645,1.939353 -1.9222096,1.148054 -2.2625099,1.262229 -3.7041599,1.242812 -1.8311497,-0.02466 -2.9254397,-0.50754 -3.9773297,-1.75505 -2.97607,-3.529526 -1.42548,-7.357984 4.0973397,-10.116511 4.0429899,-2.019379 7.1281199,-2.661362 11.7603399,-2.447203 4.83921,0.223729 7.87996,1.273416 12.71352,4.388792 3.07184,1.979901 4.70132,2.536002 7.4207,2.532507 2.84337,-0.0037 4.60351,-0.588549 7.50543,-2.494055 2.95183,-1.938271 4.13711,-2.551639 6.4529,-3.33929 2.61513,-0.889461 5.65753,-1.262094 8.8983,-1.089864 4.54424,0.241501 7.99182,1.478923 12.29979,4.414692 3.41351,2.326219 6.68183,3.069873 10.03166,2.282547 2.10576,-0.494924 2.85435,-0.849765 5.34734,-2.534708 2.22721,-1.505313 3.71647,-2.282804 5.67582,-2.963164 6.703037,-2.327548 14.332197,-1.468173 20.102127,2.264376 2.91206,1.883804 3.72309,3.080856 3.72309,5.495165 0,1.722448 -0.48461,2.795945 -1.79664,3.979849 -2.09401,1.889533 -4.46331,1.948845 -7.18568,0.179883 -2.44496,-1.588707 -4.23767,-2.157058 -6.89268,-2.185228 -2.97394,-0.03155 -4.648456,0.510772 -7.637717,2.473632 -2.95182,1.938271 -4.1371,2.551639 -6.4529,3.33929 -2.61512,0.88946 -5.65752,1.262094 -8.89829,1.089864 -4.51144,-0.239758 -7.6975,-1.372733 -12.27812,-4.366147 -3.72324,-2.433116 -6.68982,-3.121646 -10.0485,-2.332214 -2.12508,0.499483 -3.09756,0.972021 -6.00398,2.917399 -2.5288,1.692627 -5.65376,2.977028 -8.47632,3.48389 -1.85235,0.332637 -6.43965,0.443341 -7.9375,0.191553 z M 4.8945734,63.24823 c -1.29365,-0.679844 -2.47713,-1.962171 -2.94741,-3.193577 -0.36368,-0.952277 -0.41094,-1.715899 -0.27127,-4.383039 1.82149,-34.783115 36.5002896,-59.2428691 72.6717996,-51.2570801 3.94089,0.870053 9.31646,2.7837211 13.4042,4.7718081 15.142947,7.364827 26.157937,20.61471 30.114997,36.225198 1.26701,4.998355 1.98801,11.967295 1.45649,14.078133 -0.38913,1.545397 -1.63094,3.064938 -3.02052,3.696073 -1.03671,0.470863 -3.12826,0.489005 -55.845797,0.484402 C 11.109413,63.665848 5.6097534,63.624078 4.8945734,63.24823 Z M 108.05381,51.978739 C 107.28702,47.50268 105.52634,42.225674 103.66196,38.815719 96.821654,26.304798 85.290633,17.970357 70.468193,14.823767 c -3.13235,-0.664952 -3.88018,-0.722032 -9.61425,-0.733814 -6.34493,-0.01304 -7.92549,0.142768 -12.30313,1.212796 -6.14319,1.501583 -11.05982,3.670919 -16.49947,7.279963 -4.08349,2.709276 -9.47264,8.03952 -12.02867,11.897195 -3.34004,5.040921 -5.32425,9.620213 -6.52181,15.051437 -0.28878,1.309687 -0.52763,2.589609 -0.53078,2.84427 -0.005,0.439277 2.43603,0.463021 47.61266,0.463021 h 47.618377 z"
       id="path302-6" /><text
       xml:space="preserve"
       style="font-style:normal;font-variant:normal;font-weight:bold;font-stretch:normal;font-size:117.475px;font-family:'DIN Round Pro';-inkscape-font-specification:'DIN Round Pro Bold';text-align:center;letter-spacing:-6.26269px;text-anchor:middle;fill:#ffffff;fill-opacity:0.972549;stroke-width:1;stroke-linecap:round;stroke-linejoin:round;stroke-miterlimit:19.4;stroke-opacity:0.972549"
       x="479.57672"
       y="117.25997"
       id="text360"><tspan
         sodipodi:role="line"
         id="tspan358"
         style="font-style:normal;font-variant:normal;font-weight:bold;font-stretch:normal;font-size:117.475px;font-family:'DIN Round Pro';-inkscape-font-specification:'DIN Round Pro Bold';fill:#ffffff;stroke-width:1"
         x="476.44537"
         y="117.25997"
         dx="0 0 0">Menu</tspan></text><text
       xml:space="preserve"
       style="font-style:normal;font-variant:normal;font-weight:bold;font-stretch:normal;font-size:123.472px;font-family:'DIN Round Pro';-inkscape-font-specification:'DIN Round Pro Bold';text-align:center;letter-spacing:-6.26269px;text-anchor:middle;fill:#ffffff;fill-opacity:0.972549;stroke-width:1;stroke-linecap:round;stroke-linejoin:round;stroke-miterlimit:19.4;stroke-opacity:0.972549"
       x="169.5246"
       y="103.95611"
       id="text360-5"><tspan
         sodipodi:role="line"
         id="tspan358-3"
         style="font-style:normal;font-variant:normal;font-weight:normal;font-stretch:normal;font-size:123.472px;font-family:'DIN Round Pro';-inkscape-font-specification:'DIN Round Pro';fill:#ffffff;stroke-width:1"
         x="166.39325"
         y="103.95611"
         dx="0">/</tspan></text></g></svg>
