<?xml version="1.0" encoding="UTF-8" standalone="no"?>
<!-- Created with Inkscape (http://www.inkscape.org/) -->

<svg
   width="390mm"
   height="115mm"
   viewBox="0 0 390 115"
   version="1.1"
   id="svg5"
   xml:space="preserve"
   inkscape:version="1.2.2 (732a01da63, 2022-12-09)"
   sodipodi:docname="burger-menu.svg"
   xmlns:inkscape="http://www.inkscape.org/namespaces/inkscape"
   xmlns:sodipodi="http://sodipodi.sourceforge.net/DTD/sodipodi-0.dtd"
   xmlns="http://www.w3.org/2000/svg"
   xmlns:svg="http://www.w3.org/2000/svg"><sodipodi:namedview
     id="namedview7"
     pagecolor="#505050"
     bordercolor="#ffffff"
     borderopacity="1"
     inkscape:showpageshadow="0"
     inkscape:pageopacity="0"
     inkscape:pagecheckerboard="1"
     inkscape:deskcolor="#505050"
     inkscape:document-units="mm"
     showgrid="false"
     showguides="true"
     inkscape:zoom="0.52724989"
     inkscape:cx="671.4084"
     inkscape:cy="385.01668"
     inkscape:window-width="1920"
     inkscape:window-height="1017"
     inkscape:window-x="1272"
     inkscape:window-y="-8"
     inkscape:window-maximized="1"
     inkscape:current-layer="layer1"><sodipodi:guide
       position="82.677418,-18.774193"
       orientation="0,-1"
       id="guide304"
       inkscape:locked="false" /></sodipodi:namedview><defs
     id="defs2" /><g
     inkscape:label="Ğ¨Ğ°Ñ€ 1"
     inkscape:groupmode="layer"
     id="layer1"><g
       id="g419"
       transform="translate(-4.1299259,-5.6850889)"
       style="fill:#ffffff"><path
         style="fill:#ffffff;stroke-width:0.264583"
         d="m 27.574828,120.05071 c -8.0924,-1.22799 -14.819168,-6.2929 -18.1686742,-13.68007 -1.687844,-3.72246 -2.476642,-9.812851 -1.501205,-11.590955 0.560203,-1.021185 1.709861,-2.170845 2.7310462,-2.731047 0.736881,-0.404241 5.083381,-0.438454 55.700291,-0.438454 h 54.901034 l 1.17888,0.661458 c 0.64838,0.363802 1.54135,1.178967 1.98438,1.81148 0.78049,1.11433 0.80472,1.237512 0.78059,3.96875 -0.0408,4.612708 -1.53823,8.875318 -4.50717,12.829698 -3.78328,5.03903 -9.32347,8.30441 -15.52926,9.15292 -2.4027,0.32852 -75.411264,0.34379 -77.569912,0.0162 z m 77.937912,-11.26858 c 2.63293,-0.7747 5.19893,-2.67185 6.81954,-5.04196 0.31387,-0.45902 0.57067,-0.90551 0.57067,-0.99218 0,-0.0867 -20.961725,-0.1576 -46.581623,-0.1576 H 19.739703 l 0.477978,0.85397 c 1.237792,2.21146 4.467238,4.62448 7.196405,5.37711 0.957524,0.26406 9.312148,0.34126 38.940324,0.35985 33.82859,0.0212 37.86954,-0.02 39.15833,-0.39919 z M 41.465453,88.384222 c -3.223464,-0.541864 -6.815696,-2.001829 -9.58211,-3.894391 -2.342912,-1.602836 -3.634351,-2.214931 -5.691936,-2.697779 -3.114853,-0.730954 -5.974721,-0.144942 -9.464496,1.939353 -1.922207,1.148054 -2.26251,1.262229 -3.704166,1.242812 -1.831146,-0.02466 -2.925438,-0.50754 -3.9773282,-1.75505 -2.976063,-3.529526 -1.425478,-7.357984 4.0973472,-10.116511 4.042985,-2.019379 7.128114,-2.661362 11.760336,-2.447203 4.839211,0.223729 7.879964,1.273416 12.713515,4.388792 3.071844,1.979901 4.701331,2.536002 7.420713,2.532507 2.843363,-0.0037 4.603507,-0.588549 7.505428,-2.494055 2.951824,-1.938271 4.137107,-2.551639 6.452901,-3.33929 2.615121,-0.889461 5.657528,-1.262094 8.898298,-1.089864 4.544237,0.241501 7.991821,1.478923 12.299791,4.414692 3.413511,2.326219 6.681825,3.069873 10.031659,2.282547 2.10576,-0.494924 2.85435,-0.849765 5.34734,-2.534708 2.22721,-1.505313 3.71647,-2.282804 5.675815,-2.963164 6.70304,-2.327548 14.3322,-1.468173 20.10213,2.264376 2.91206,1.883804 3.72309,3.080856 3.72309,5.495165 0,1.722448 -0.48461,2.795945 -1.79664,3.979849 -2.09401,1.889533 -4.46331,1.948845 -7.18568,0.179883 -2.44496,-1.588707 -4.23767,-2.157058 -6.89268,-2.185228 -2.97394,-0.03155 -4.64845,0.510772 -7.63772,2.473632 -2.951815,1.938271 -4.137095,2.551639 -6.452895,3.33929 -2.61512,0.88946 -5.657527,1.262094 -8.898297,1.089864 -4.511437,-0.239758 -7.697491,-1.372733 -12.278119,-4.366147 -3.723238,-2.433116 -6.689818,-3.121646 -10.048499,-2.332214 -2.125073,0.499483 -3.097554,0.972021 -6.003973,2.917399 -2.528805,1.692627 -5.653762,2.977028 -8.476324,3.48389 -1.85235,0.332637 -6.439651,0.443341 -7.9375,0.191553 z M 10.641495,66.43332 C 9.3478508,65.753476 8.1643698,64.471149 7.6940918,63.239743 7.3304138,62.287466 7.2831528,61.523844 7.4228228,58.856704 9.2443088,24.073589 43.923115,-0.38616542 80.09462,7.5996234 c 3.940892,0.870053 9.316466,2.7837216 13.404205,4.7718086 15.142945,7.364827 26.157935,20.61471 30.114995,36.225198 1.26701,4.998355 1.98801,11.967295 1.45649,14.078133 -0.38913,1.545397 -1.63094,3.064938 -3.02052,3.696073 -1.03671,0.470863 -3.12826,0.489005 -55.845795,0.484402 -49.347652,-0.0043 -54.847317,-0.04607 -55.5625,-0.421918 z M 113.80074,55.163829 C 113.03395,50.68777 111.27327,45.410764 109.40889,42.000809 102.56858,29.489888 91.037565,21.155447 76.215127,18.008857 73.082778,17.343905 72.334938,17.286825 66.60087,17.275043 c -6.344928,-0.01304 -7.925491,0.142768 -12.303125,1.212796 -6.143194,1.501583 -11.059824,3.670919 -16.499472,7.279963 -4.083492,2.709276 -9.472645,8.03952 -12.028678,11.897195 -3.340034,5.040921 -5.324245,9.620213 -6.521802,15.051437 -0.28878,1.309687 -0.52763,2.589609 -0.530781,2.84427 -0.0054,0.439277 2.436024,0.463021 47.61266,0.463021 h 47.618378 z"
         id="path302" /><text
         xml:space="preserve"
         style="font-style:normal;font-variant:normal;font-weight:bold;font-stretch:normal;font-size:117.475px;font-family:'DIN Round Pro';-inkscape-font-specification:'DIN Round Pro Bold';text-align:center;letter-spacing:-6.26269px;text-anchor:middle;fill:#ffffff;fill-opacity:0.972549;stroke-width:1;stroke-linecap:round;stroke-linejoin:round;stroke-miterlimit:19.4;stroke-opacity:0.972549"
         x="261.82993"
         y="108.23878"
         id="text360"><tspan
           sodipodi:role="line"
           id="tspan358"
           style="font-style:normal;font-variant:normal;font-weight:bold;font-stretch:normal;font-size:117.475px;font-family:'DIN Round Pro';-inkscape-font-specification:'DIN Round Pro Bold';stroke-width:1;fill:#ffffff"
           x="258.69858"
           y="108.23878"
           dx="0 0 0">Menu</tspan></text></g></g></svg>
