<?xml version="1.0" encoding="UTF-8" standalone="no"?>
<!-- Created with Inkscape (http://www.inkscape.org/) -->

<svg
   xmlns:dc="http://purl.org/dc/elements/1.1/"
   xmlns:cc="http://creativecommons.org/ns#"
   xmlns:rdf="http://www.w3.org/1999/02/22-rdf-syntax-ns#"
   xmlns:svg="http://www.w3.org/2000/svg"
   xmlns="http://www.w3.org/2000/svg"
   xmlns:sodipodi="http://sodipodi.sourceforge.net/DTD/sodipodi-0.dtd"
   xmlns:inkscape="http://www.inkscape.org/namespaces/inkscape"
   width="200mm"
   height="125mm"
   viewBox="0 0 199.99999 125"
   version="1.1"
   id="svg8"
   sodipodi:docname="picanteria-logo-light.svg"
   inkscape:version="0.92.4 (5da689c313, 2019-01-14)">
  <defs
     id="defs2" />
  <sodipodi:namedview
     id="base"
     pagecolor="#ffffff"
     bordercolor="#666666"
     borderopacity="1.0"
     inkscape:pageopacity="0.0"
     inkscape:pageshadow="2"
     inkscape:zoom="0.35"
     inkscape:cx="-528.84716"
     inkscape:cy="292.34244"
     inkscape:document-units="mm"
     inkscape:current-layer="layer1"
     showgrid="false"
     units="mm"
     inkscape:window-width="1920"
     inkscape:window-height="1017"
     inkscape:window-x="-8"
     inkscape:window-y="-8"
     inkscape:window-maximized="1" />
  <metadata
     id="metadata5">
    <rdf:RDF>
      <cc:Work
         rdf:about="">
        <dc:format>image/svg+xml</dc:format>
        <dc:type
           rdf:resource="http://purl.org/dc/dcmitype/StillImage" />
        <dc:title></dc:title>
      </cc:Work>
    </rdf:RDF>
  </metadata>
  <g
     inkscape:label="Layer 1"
     inkscape:groupmode="layer"
     id="layer1"
     transform="translate(0,-171.99999)">
    <path
       style="fill:#000000;stroke-width:0.16155823"
       d="m 116.48491,295.99403 c -0.16608,-0.0354 -0.4354,-0.18307 -0.5985,-0.32827 -0.16311,-0.14521 -0.48038,-0.42499 -0.70507,-0.62172 -1.19254,-1.04428 -1.52369,-3.18213 -0.74562,-4.81362 0.5019,-1.05239 0.75979,-1.2893 2.00556,-1.84256 1.06647,-0.4736 2.47174,-0.57021 3.62631,-0.24932 1.02326,0.28443 1.09814,0.36442 0.88811,0.94885 -0.10011,0.27861 -0.21666,0.50655 -0.25897,0.50655 -0.0423,0 -0.32771,-0.18555 -0.63426,-0.41236 -0.39773,-0.29428 -0.83,-0.43635 -1.50931,-0.4961 -0.89032,-0.0783 -0.99953,-0.0488 -1.68718,0.45532 -1.34173,0.9837 -1.80625,2.71163 -1.19126,4.43111 0.34282,0.95843 0.90671,1.44718 2.05464,1.78078 0.75254,0.21872 1.84586,0.002 2.5923,-0.51338 0.61779,-0.42671 0.66266,-0.40407 0.61108,0.30836 -0.0247,0.34158 -0.0989,0.58888 -0.16468,0.54952 -0.0659,-0.0394 -0.46637,0.0426 -0.89005,0.18213 -0.70716,0.2329 -2.54567,0.29505 -3.3931,0.11471 z m -67.157626,-3.97353 0.04084,-3.93817 h 2.132464 2.13247 l 0.05189,0.43757 0.05189,0.43758 h -1.569233 -1.569232 v 1.19338 1.19338 h 1.394299 1.394306 v 0.45975 0.45976 l -1.404319,-0.085 -1.404323,-0.085 0.05103,1.93274 0.05103,1.93277 h -0.69701 -0.69701 l 0.04086,-3.93818 z m 7.996605,3.87287 c 0,-0.066 1.458176,-3.26868 1.890059,-4.15133 0.128472,-0.26254 0.599512,-1.24709 1.046757,-2.18787 0.447254,-0.94079 0.874114,-1.71052 0.948593,-1.71052 0.147808,0 0.193649,0.0927 1.259317,2.54589 0.399166,0.91891 1.102667,2.52014 1.563341,3.5583 0.460669,1.03814 0.837585,1.91919 0.837585,1.95791 0,0.0387 -0.343946,0.0486 -0.764316,0.0218 -0.555183,-0.0352 -0.774797,-0.11916 -0.80261,-0.30678 -0.02108,-0.14205 -0.152317,-0.50005 -0.291675,-0.79559 -0.139352,-0.29551 -0.364937,-0.80581 -0.501301,-1.134 L 62.261702,293.0945 H 60.88221 59.502715 l -0.515289,1.26489 c -0.283404,0.6957 -0.515283,1.34013 -0.515283,1.43206 0,0.0919 -0.258355,0.16717 -0.57413,0.16717 -0.315767,0 -0.574124,-0.0294 -0.574124,-0.0653 z m 4.593007,-3.6897 c 0,-0.0524 -0.10207,-0.32092 -0.226826,-0.59671 -0.124751,-0.27576 -0.3194,-0.73681 -0.432552,-1.02453 -0.113145,-0.28772 -0.276168,-0.50035 -0.362259,-0.47251 -0.08609,0.0278 -0.368136,0.53176 -0.62676,1.11983 l -0.470223,1.06921 h 1.059307 c 0.582624,0 1.059313,-0.0429 1.059313,-0.0953 z m 6.56143,3.49934 c 0,-0.1406 0.106222,-0.87453 0.236045,-1.63095 0.184839,-1.07694 0.590714,-3.89014 0.824223,-5.71288 0.01413,-0.11029 0.104075,-0.27655 0.199881,-0.36949 0.122897,-0.11921 0.322357,0.12726 0.677369,0.83699 0.903915,1.80712 2.682352,4.90434 2.816089,4.90434 0.05617,0 0.262554,-0.30432 0.458665,-0.67626 0.358812,-0.68051 0.845228,-1.54513 2.148366,-3.81882 0.989311,-1.72615 1.110565,-1.68221 1.25101,0.45323 0.05121,0.77901 0.196372,2.13242 0.322525,3.00759 0.126153,0.87515 0.265747,1.9671 0.310199,2.42654 l 0.08083,0.83538 h -0.71719 -0.717185 l 0.0037,-0.91494 c 0.0037,-0.89913 -0.333561,-4.36423 -0.434833,-4.46905 -0.02845,-0.0295 -0.227625,0.29277 -0.442634,0.71603 -0.215014,0.42326 -0.668553,1.2881 -1.007867,1.9219 -0.339313,0.63377 -0.563907,1.23558 -0.499088,1.3373 0.06578,0.10324 0.04687,0.14242 -0.04277,0.0887 -0.08834,-0.053 -0.322084,0.2261 -0.519429,0.6201 -0.197346,0.39401 -0.425889,0.67618 -0.507886,0.62703 -0.08199,-0.0492 -0.7639,-1.26876 -1.51535,-2.71021 l -1.366277,-2.62084 -0.190699,1.30972 c -0.104888,0.72034 -0.197153,1.93624 -0.205045,2.702 l -0.01433,1.39229 H 69.05252 c -0.417914,0 -0.574125,-0.0696 -0.574125,-0.25567 z m 13.915482,-3.60261 c 0.02998,-2.12219 0.06685,-3.86968 0.08202,-3.88333 0.01516,-0.0137 0.285922,-0.0496 0.601697,-0.0798 l 0.57412,-0.0549 v 3.93817 3.93817 l -0.656147,1.2e-4 -0.656139,1.4e-4 z m 6.164868,0.71569 c 0.05034,-1.72842 0.09259,-3.48702 0.09382,-3.90801 l 0.0026,-0.7654 0.61513,0.0494 0.615137,0.0494 -0.0034,3.47614 -0.0034,3.47612 1.541792,-0.0551 1.541791,-0.0551 0.05,0.43758 0.05,0.43758 h -2.297111 -2.297109 l 0.09159,-3.14259 z m 10.844187,2.97751 c 0.0578,-0.0908 0.0996,-0.84049 0.0928,-1.66598 -0.0121,-1.46466 -0.0281,-1.52502 -0.66094,-2.50014 -0.78332,-1.20693 -2.14222,-3.4299 -2.14222,-3.50436 0,-0.0295 0.34563,-0.0401 0.76807,-0.024 0.75186,0.029 0.77787,0.0476 1.23168,0.88156 0.25498,0.46856 0.55304,0.99512 0.66235,1.17014 0.815047,1.30508 0.977757,1.51179 1.121977,1.42532 0.0896,-0.0537 0.55826,-0.86179 1.04148,-1.79574 0.86698,-1.67564 0.88638,-1.69827 1.4668,-1.70987 l 0.5882,-0.0118 -0.35241,0.56867 c -0.19383,0.31278 -0.48709,0.75873 -0.65168,0.99104 -0.16458,0.2323 -0.29925,0.45833 -0.29925,0.50233 0,0.044 -0.33201,0.56996 -0.73783,1.16884 l -0.73783,1.08883 -3.3e-4,1.79008 -3.3e-4,1.79008 h -0.74784 c -0.474777,0 -0.709437,-0.0603 -0.642667,-0.16508 z m 25.175707,-0.10767 c 0,-0.16111 0.10041,-0.43416 0.22316,-0.60679 0.12274,-0.17262 0.5732,-1.10149 1.00103,-2.06415 1.22202,-2.74969 2.43139,-5.17134 2.58261,-5.17134 0.076,0 0.21482,0.1969 0.30847,0.43757 0.0936,0.24066 0.30726,0.72398 0.47467,1.07405 0.42035,0.87896 1.92118,4.22827 2.47769,5.52935 l 0.45941,1.07406 h -0.76985 -0.76987 l -0.50653,-1.39183 -0.50652,-1.39184 -1.36465,-0.0466 c -0.75054,-0.0256 -1.43056,0.0173 -1.51113,0.0955 -0.0806,0.0782 -0.3536,0.70776 -0.60671,1.39911 -0.43227,1.18067 -0.49153,1.26004 -0.976,1.30688 -0.41016,0.0396 -0.51578,-0.0102 -0.51578,-0.24306 z m 4.24063,-4.14278 c -0.1874,-0.41571 -0.42926,-0.95313 -0.53747,-1.19429 l -0.19675,-0.4385 -0.29401,0.59761 c -0.1617,0.32867 -0.32147,0.73555 -0.35506,0.90415 -0.0336,0.16861 -0.13659,0.37985 -0.22892,0.46939 -0.33776,0.32764 -0.14574,0.41745 0.89253,0.41745 h 1.0604 z m 7.40592,0.47323 v -3.94229 h 2.13246 2.13246 v 0.44169 0.4417 h -1.47631 -1.47633 v 0.45513 c 0,0.25034 -0.0469,0.78737 -0.10431,1.1934 l -0.1043,0.73823 h 1.47127 1.47128 v 0.46532 0.46529 l -1.44891,-0.091 -1.44889,-0.0911 0.10714,1.93297 0.10714,1.93297 h -0.68134 -0.68136 z m 8.85793,-0.01 v -3.92447 l 2.09145,0.002 2.09146,0.002 0.0519,0.43505 0.0519,0.43506 h -1.46492 -1.46493 l -0.10431,0.73824 c -0.0573,0.40603 -0.10431,0.94305 -0.10431,1.19338 v 0.45514 h 1.39431 c 1.09427,0 1.3943,0.0487 1.3943,0.22567 0,0.12411 0.0432,0.33466 0.0959,0.46788 0.083,0.21 -0.10248,0.22977 -1.39431,0.14859 l -1.49014,-0.0936 v 1.53517 1.53517 h 1.531 c 0.84207,0 1.57219,0.04 1.62252,0.0888 0.0503,0.0488 0.0557,0.22166 0.012,0.38408 -0.0723,0.26841 -0.27236,0.29531 -2.19665,0.29531 h -2.11703 v -3.92445 z m -104.146316,1.34287 c -0.665998,-0.66653 -0.738673,-1.40409 -0.209391,-2.12511 0.403432,-0.54959 1.268654,-0.90008 1.857819,-0.75259 2.058785,0.51541 1.698275,3.41817 -0.424523,3.41817 -0.562247,0 -0.779908,-0.0961 -1.223905,-0.54047 z m 114.713536,0.35837 c -0.57943,-0.27275 -0.93933,-1.03995 -0.83655,-1.78333 0.23303,-1.68532 2.51828,-2.0479 3.29033,-0.52206 0.26272,0.51922 0.2803,0.69959 0.1191,1.22155 -0.3332,1.07873 -1.52082,1.57901 -2.57288,1.08384 z m 41.46893,-12.16155 c -1.14541,-0.55367 -3.11744,-2.42619 -4.09294,-3.88639 -0.74245,-1.11136 -2.01318,-3.61135 -2.01318,-3.96067 0,-0.29706 -0.96826,-2.17889 -1.87646,-3.64698 -0.87624,-1.4164 -1.56713,-3.24966 -1.56921,-4.16388 -0.002,-0.68453 -0.32054,-1.55788 -0.60809,-1.66491 -0.15099,-0.0562 -1.27523,-0.13445 -2.49834,-0.1739 -1.27248,-0.041 -2.68589,-0.18449 -3.30394,-0.3353 -1.44784,-0.35329 -1.86059,-0.236 -2.17928,0.61921 -0.13865,0.3721 -0.28825,0.96296 -0.33243,1.31302 -0.2203,1.74551 -0.93325,5.32527 -1.17255,5.88737 -0.83518,1.96178 -2.61257,2.85724 -4.2576,2.14498 -1.35447,-0.58647 -1.83149,-1.25454 -2.3911,-3.34869 -0.45557,-1.70482 -0.29559,-2.51414 0.82654,-4.18155 0.43588,-0.64767 0.88432,-1.34401 0.99654,-1.54745 0.21835,-0.39571 1.29123,-3.36832 1.39707,-3.87084 0.035,-0.16598 0.14342,-0.53644 0.241,-0.82326 0.0976,-0.2868 0.21343,-0.72383 0.25744,-0.97116 0.044,-0.24735 0.18225,-0.73613 0.30719,-1.08618 0.12496,-0.35006 0.45888,-1.49572 0.74206,-2.5459 2.48053,-9.1994 3.68651,-12.4805 5.53852,-15.06876 1.64108,-2.29347 3.06589,-3.19863 4.46121,-2.83416 1.00656,0.26291 1.40481,0.92626 1.39312,2.32051 -0.009,1.04686 -0.0844,1.27888 -1.08955,3.34148 -1.18507,2.43191 -1.57293,3.6737 -1.30122,4.16616 0.0927,0.168 0.46761,0.56755 0.83317,0.88791 1.34135,1.17551 1.96079,2.27643 2.47211,4.39367 0.17116,0.70867 0.393,1.05652 1.21779,1.90942 0.55467,0.57359 1.16038,1.36511 1.34599,1.75893 0.40988,0.86956 1.20616,2.90252 1.20616,3.0794 0,0.13223 2.33018,4.67338 2.96001,5.76859 0.19596,0.34075 0.89218,1.40717 1.54714,2.36983 1.28897,1.8945 1.83211,2.85052 1.9552,3.44152 0.13026,0.62537 0.89226,3.33085 1.24908,4.43482 0.18386,0.56885 0.4195,1.79919 0.52361,2.73407 0.22806,2.04742 0.0732,2.75656 -0.73138,3.35094 -0.83318,0.61541 -1.11613,0.64133 -2.05368,0.18815 z m -13.03663,-23.55274 c 0.20298,-0.0558 0.36771,-0.1468 0.36606,-0.20223 -0.0332,-1.10794 -1.09813,-4.9312 -1.5349,-5.51058 -0.21947,-0.29116 -0.25349,-0.24803 -0.50435,0.63936 -0.4104,1.45177 -1.0601,3.07244 -1.67117,4.1687 -0.3033,0.54417 -0.55149,1.03696 -0.55149,1.09508 0,0.12318 3.35087,-0.0406 3.89585,-0.19033 z m -158.412667,23.4407 c -0.586195,-0.28773 -1.109934,-1.12532 -1.296658,-2.07368 -0.0894,-0.45407 -0.201301,-2.61564 -0.248675,-4.80351 -0.04736,-2.18788 -0.200575,-4.96313 -0.340454,-6.16723 -0.139885,-1.20411 -0.32653,-3.63861 -0.414771,-5.41001 -0.08825,-1.77141 -0.235747,-3.68616 -0.327789,-4.25501 -0.09204,-0.56884 -0.203935,-2.09351 -0.248649,-3.38814 l -0.08131,-2.35388 0.425522,-0.41276 c 0.399626,-0.38765 0.494928,-0.40712 1.565884,-0.32003 1.248735,0.10155 1.885495,0.39852 2.687095,1.25319 0.694612,0.74061 1.017229,1.36059 1.494767,2.87255 0.570548,1.80644 0.610777,4.91561 0.08394,6.48614 -0.316313,0.94292 -0.346947,1.39261 -0.346879,5.09177 8.1e-5,3.86702 0.01884,4.11354 0.399737,5.2509 0.345582,1.03193 0.394753,1.45173 0.363443,3.1028 -0.03255,1.71665 -0.08186,2.00174 -0.488436,2.82386 -0.523398,1.05836 -1.278729,1.94654 -1.935614,2.27606 -0.558359,0.28008 -0.766653,0.28441 -1.29116,0.0269 z M 157.79582,280.9338 c -1.04309,-0.4535 -1.66869,-1.30847 -2.81439,-3.84608 -0.69446,-1.53818 -1.9747,-3.51673 -2.78272,-4.30051 -0.1741,-0.16889 -0.75757,-0.84225 -1.29659,-1.49638 -0.53901,-0.65413 -1.06339,-1.27531 -1.16529,-1.38041 -0.44357,-0.45748 -2.24047,-3.44712 -2.62563,-4.36845 -0.46049,-1.10154 -1.26953,-2.36248 -1.65397,-2.57786 -0.1337,-0.0749 -0.36282,-0.2718 -0.50913,-0.43756 -0.21869,-0.24776 -0.7803,-0.41601 -0.87321,-0.26161 -0.0132,0.0219 -0.0731,1.40025 -0.13317,3.06302 -0.10342,2.86248 -0.13716,3.09899 -0.63453,4.44753 -0.9366,2.53943 -1.48347,3.54183 -2.08281,3.81772 -1.18129,0.54373 -2.60285,0.13601 -3.03232,-0.86974 -0.18473,-0.43262 -0.18593,-0.82439 -0.007,-2.36579 0.11784,-1.01606 0.23547,-2.06217 0.26137,-2.32471 0.026,-0.26254 0.17277,-1.33659 0.32637,-2.38678 0.40923,-2.79762 0.1223,-8.11289 -0.66137,-12.25208 -0.13256,-0.70012 -0.28169,-1.52356 -0.3314,-1.82986 -0.0497,-0.3063 -0.20644,-1.16554 -0.34827,-1.90941 -0.39944,-2.09506 -0.1719,-3.13853 0.95628,-4.3849 1.26317,-1.39555 5.6575,-2.77844 8.81152,-2.77298 3.24598,0.005 6.69116,1.39917 7.99428,3.23361 0.64842,0.9128 0.8032,1.42086 1.13011,3.70919 0.13568,0.94969 0.32381,2.0489 0.41809,2.44272 0.5018,2.09627 0.36156,3.41116 -0.59968,5.62201 -0.76303,1.75496 -2.01159,2.88132 -3.58655,3.23553 -0.18537,0.0416 -1.00139,0.16949 -1.81336,0.28402 -0.81198,0.1145 -1.38404,0.2168 -1.27128,0.22731 0.11278,0.0105 0.20504,0.11762 0.20504,0.23803 0,0.12041 0.85648,1.06915 1.90332,2.10831 1.04681,1.03917 2.01672,2.1042 2.15535,2.36675 0.38144,0.72235 1.86692,2.78455 2.40116,3.33338 0.97697,1.00369 2.72618,3.07627 2.72618,3.23018 0,0.088 0.10898,0.2477 0.24215,0.35492 0.27805,0.22387 2.24627,4.07994 2.54129,4.97889 0.43034,1.31131 -0.23996,2.46667 -1.76152,3.03621 -0.83841,0.31383 -1.42551,0.32388 -2.08815,0.0358 z m -7.66135,-23.69611 c 0.61727,-0.33236 0.88572,-1.03696 1.00969,-2.6502 0.14077,-1.83185 -0.0571,-2.48661 -1.03923,-3.43917 -1.43919,-1.39586 -3.37586,-1.95147 -4.74877,-1.36237 -0.65984,0.28314 -0.76521,0.39255 -0.76521,0.79465 0,0.25645 0.11228,0.77497 0.24952,1.15227 0.13722,0.37729 0.29312,1.29923 0.34646,2.04876 0.0533,0.74953 0.19885,1.52055 0.3234,1.71339 0.27179,0.42085 1.44027,1.11183 2.68432,1.58738 1.05672,0.40391 1.4235,0.43329 1.93982,0.15529 z m -45.77717,23.32583 c -0.37223,-0.39903 -0.8133,-1.4654 -1.3986,-3.38127 -0.54555,-1.78571 -0.54513,-1.78359 -0.93475,-4.78596 -0.35981,-2.77276 -0.36507,-2.80467 -0.66647,-4.04508 -0.33707,-1.38712 -0.33213,-4.34452 0.0112,-6.71718 0.29344,-2.02769 0.31867,-5.88519 0.0568,-8.68335 -0.14653,-1.56572 -0.14516,-2.28078 0.006,-3.1028 0.10802,-0.58751 0.22951,-1.3188 0.26997,-1.6251 0.3431,-2.59707 0.40421,-3.22651 0.40421,-4.16233 0,-1.25535 -0.20476,-1.88554 -0.61107,-1.88067 -0.16011,0.002 -0.62328,0.1518 -1.02927,0.33305 -1.333557,0.59536 -2.311787,0.78883 -5.085105,1.00566 -0.496216,0.0388 -1.225208,0.1823 -1.619986,0.31888 -0.849456,0.2939 -2.091749,0.3149 -2.590162,0.0438 -0.424579,-0.23093 -1.027844,-0.94892 -1.128242,-1.34279 -0.03961,-0.15538 -0.174121,-0.64053 -0.298912,-1.07811 -0.124799,-0.43757 -0.194621,-0.97372 -0.155154,-1.19144 0.09076,-0.50074 0.760037,-1.35904 1.333399,-1.71001 0.242095,-0.14819 0.957213,-0.67882 1.589147,-1.17918 0.631933,-0.50036 1.356454,-0.98627 1.61003,-1.07978 0.255815,-0.0943 1.642879,-0.17223 3.115948,-0.17496 4.114817,-0.007 6.756277,-0.41751 10.624377,-1.64867 2.30405,-0.73336 4.30488,-1.51586 4.45285,-1.74149 0.0668,-0.1018 0.12252,-0.13503 0.12391,-0.0739 0.002,0.0612 0.2585,0.007 0.57137,-0.11934 0.91393,-0.3704 2.00837,-0.29053 3.12194,0.22788 1.5711,0.73138 2.39917,1.71973 2.67522,3.193 0.26737,1.42689 -0.1001,2.25733 -1.54468,3.49077 -0.7952,0.67897 -1.95809,1.29324 -2.66903,1.40983 -0.23646,0.0388 -1.46957,0.0916 -2.74028,0.11727 -2.44341,0.0495 -3.32837,0.27073 -3.36783,0.84209 -0.0104,0.15091 -0.0345,1.42003 -0.0537,2.82026 -0.0344,2.51179 -0.0787,2.9726 -0.40081,4.16685 -0.09,0.33368 -0.2099,0.9289 -0.26645,1.32272 -0.0566,0.39382 -0.17821,1.03824 -0.27037,1.43207 -0.22224,0.9497 -0.21686,3.18518 0.0105,4.38514 0.18501,0.97625 0.21244,3.31854 0.11825,10.0946 -0.0442,3.17507 -0.10384,3.93134 -0.39558,5.01221 -0.28987,1.0739 -0.33006,1.57152 -0.25699,3.18236 0.21997,4.84877 0.18399,5.16844 -0.68196,6.05907 -0.6091,0.62647 -1.48121,0.74664 -1.92967,0.26589 z m -30.074977,-2.25373 c -1.313565,-0.57864 -1.434189,-1.2134 -0.943804,-4.96673 0.2469,-1.88973 0.2469,-2.15265 0,-3.46172 -0.335792,-1.78039 -0.335234,-2.61577 0.0031,-4.84271 0.237923,-1.5654 0.245903,-2.11388 0.0664,-4.56379 -0.179812,-2.45421 -0.171388,-3.02055 0.07102,-4.77356 0.151268,-1.09392 0.391069,-2.41859 0.532888,-2.94367 0.164661,-0.60964 0.248141,-1.52983 0.230961,-2.5459 -0.05165,-3.05495 0.217871,-3.72441 1.643716,-4.08292 1.025058,-0.25773 1.912186,0.005 2.850795,0.84423 1.055605,0.94385 1.593919,1.87735 2.509925,4.35253 1.80371,4.87386 2.110567,5.43864 5.440538,10.01359 1.356668,1.8639 2.489739,4.01054 2.970734,5.6282 0.19004,0.63913 0.379772,1.12886 0.421599,1.08827 0.04182,-0.0406 -0.04932,-0.7067 -0.202585,-1.48029 -0.36835,-1.85925 -0.368767,-4.13974 -8.51e-4,-6.57401 0.238185,-1.57741 0.272236,-2.34541 0.165791,-3.73928 -0.170365,-2.23115 -0.176965,-4.18173 -0.02393,-7.0804 0.116188,-2.2006 0.140998,-2.3227 0.557894,-2.7448 0.345883,-0.3502 0.584,-0.44173 1.149041,-0.44173 0.771688,0 1.733492,0.32778 2.235439,0.76187 0.383868,0.33196 1.218599,2.05571 1.825032,3.76875 0.429979,1.21459 0.445224,1.36395 0.357312,3.5006 -0.0505,1.22753 -0.161464,2.68359 -0.246591,3.23568 -0.08517,0.55207 -0.238135,4.34704 -0.340015,8.43325 -0.202261,8.11155 -0.328601,9.60715 -0.882229,10.44387 -0.494248,0.74693 -2.216217,1.60078 -3.222394,1.59782 -1.45945,-0.004 -3.607496,-1.475 -4.241158,-2.90384 -0.187161,-0.42201 -0.536918,-1.48025 -0.777233,-2.35167 -0.751894,-2.72642 -1.545394,-4.93443 -2.033962,-5.65972 -0.258667,-0.38401 -1.02355,-1.26218 -1.699755,-1.95151 -0.676183,-0.68931 -1.327322,-1.44115 -1.446965,-1.67073 -0.119637,-0.22959 -0.393017,-0.62854 -0.607504,-0.88655 -0.381417,-0.45876 -1.34069,-2.33938 -1.34069,-2.62828 0,-0.0801 -0.07141,-0.18854 -0.15869,-0.24088 -0.09966,-0.0597 -0.151169,0.72106 -0.138465,2.09894 0.0114,1.2355 -0.06217,2.47799 -0.168393,2.84398 -0.103739,0.35745 -0.305766,1.28829 -0.448938,2.06852 -0.305636,1.66562 -0.227724,2.81377 0.332997,4.90716 0.485603,1.81296 0.509466,3.26972 0.07586,4.63146 -0.71381,2.24175 -2.549007,3.18275 -4.516749,2.31597 z M 3.7488189,278.04235 c -0.7373461,-0.46378 -1.1364132,-1.27545 -1.7134946,-3.48505 -0.2904842,-1.11229 -0.333387,-1.79512 -0.3399093,-5.41002 -0.00436,-2.37244 0.068431,-4.50266 0.170469,-4.99416 0.3735746,-1.79943 0.208208,-4.04891 -0.5628095,-7.65573 C 0.44393974,252.47835 0.01902634,248.19708 2.0314358e-4,243.37016 -0.00668686,241.58434 0.16277424,239.56168 0.34316274,239.27857 c 0.055121,-0.0865 0.1135242,-1.09882 0.1297486,-2.24951 0.03397,-2.40952 0.1943389,-2.91654 1.23114556,-3.89257 1.1472575,-1.07999 1.7866588,-1.27269 5.8256911,-1.75563 1.688255,-0.20186 3.154838,0.0981 5.232606,1.07027 2.204456,1.03141 3.779304,2.02331 4.654577,2.9316 0.673971,0.69938 1.684486,2.39628 1.688734,2.83577 0.0012,0.12044 0.147294,0.66822 0.324736,1.21726 0.177438,0.54906 0.405906,1.62821 0.507695,2.39816 0.15774,1.1931 0.143897,1.57941 -0.09373,2.61548 -0.44492,1.9399 -1.518821,3.47373 -3.115462,4.44979 -0.453229,0.27707 -1.193129,0.79723 -1.644232,1.15593 -0.451095,0.35869 -1.011599,0.76779 -1.245559,0.9091 -0.619762,0.37433 -2.100461,0.59832 -4.074719,0.61638 -0.953296,0.009 -1.915861,0.0652 -2.139041,0.12552 -0.654486,0.17688 -0.757997,0.8726 -0.411435,2.76531 0.371776,2.03039 0.360492,6.73484 -0.02164,9.02716 -0.182374,1.09399 -0.265698,3.02831 -0.301595,7.00119 -0.02727,3.01927 -0.107573,5.73583 -0.178423,6.0368 -0.16236,0.68964 -1.3953844,1.91911 -1.9246724,1.91911 -0.2098675,0 -0.6773003,-0.18602 -1.038748,-0.41334 z M 12.989012,244.8005 c 1.4791,-0.42607 2.148403,-1.52554 1.977704,-3.24878 -0.06051,-0.61082 -0.265554,-1.02731 -1.010724,-2.05301 -0.514154,-0.70772 -1.120908,-1.42874 -1.348353,-1.60228 -0.465319,-0.35506 -1.53181,-0.59019 -3.346243,-0.73777 -2.083778,-0.16948 -2.468858,0.15477 -2.534941,2.13448 -0.02226,0.6671 -0.09844,1.82602 -0.169272,2.5754 -0.1948663,2.06153 0.07864,2.36538 2.563181,2.84757 1.914124,0.37147 2.804616,0.3909 3.868648,0.0844 z m 104.289958,32.79528 c -0.45109,-0.12354 -1.04162,-0.25907 -1.31227,-0.30117 -1.30436,-0.20294 -2.00653,-1.05657 -2.0684,-2.51456 -0.0945,-2.22656 0.0595,-5.80621 0.26657,-6.19451 0.4625,-0.86757 0.5588,-2.64353 0.35721,-6.58776 -0.2665,-5.2139 -0.2264,-9.7245 0.0991,-11.14907 0.13996,-0.61262 0.80329,-2.67528 1.47403,-4.58373 1.39265,-3.96237 1.61892,-4.29972 3.27769,-4.88642 0.81831,-0.28941 1.3737,-0.35543 3.14088,-0.37338 l 2.1468,-0.0218 1.65339,0.66927 c 0.90938,0.3681 2.22314,0.78343 2.91949,0.92294 1.72454,0.34553 4.54025,1.30634 4.9412,1.68607 0.53515,0.50683 0.48452,1.94354 -0.11091,3.14695 -0.42265,0.85418 -0.55476,0.9876 -1.14907,1.16032 -1.05774,0.30741 -2.97175,-0.22436 -7.73587,-2.14926 -0.74388,-0.30055 -1.17589,-0.37414 -1.93226,-0.32911 -1.49386,0.0889 -1.66406,0.22843 -1.5318,1.25537 0.0703,0.54537 0.0339,1.07 -0.10113,1.46085 -0.22501,0.65109 -0.3362,7.56019 -0.12696,7.88859 0.18355,0.28809 1.20657,0.1567 2.94709,-0.37851 1.59443,-0.49029 1.69125,-0.50124 2.74419,-0.31032 2.0768,0.37656 2.86708,0.84966 3.40296,2.03715 0.39525,0.87588 0.30088,1.67076 -0.26027,2.19225 -0.46969,0.4365 -0.5658,0.45809 -2.1844,0.49067 -1.61791,0.0326 -1.7514,0.0625 -3.00607,0.67444 -0.72214,0.3522 -1.58712,0.69025 -1.92218,0.75122 -0.75643,0.13766 -1.23811,0.50847 -1.33548,1.02809 -0.0409,0.21878 -0.14623,0.72001 -0.23385,1.11382 -0.0876,0.39382 -0.19336,1.10985 -0.23492,1.59119 -0.0416,0.48133 -0.26335,1.26896 -0.49281,1.75029 -0.46806,0.98183 -0.51352,1.47582 -0.34045,3.6995 l 0.12074,1.5514 h 0.61302 c 0.33716,0 1.341,-0.26203 2.23076,-0.58229 1.40622,-0.50617 1.82145,-0.58544 3.17605,-0.60616 0.8768,-0.0133 1.97424,-0.13854 2.50922,-0.28608 1.12993,-0.3116 1.55946,-0.20238 2.36392,0.60112 1.38406,1.3824 1.08528,3.05408 -0.63949,3.57798 -0.9056,0.27509 -0.90581,0.27512 -2.79725,0.47975 -1.16217,0.12571 -1.88512,0.3031 -2.64954,0.6501 -0.57819,0.26246 -1.22457,0.50638 -1.43639,0.54203 -3.08663,0.51971 -5.64207,0.64509 -6.78253,0.33278 z m 46.78273,-0.7349 c -0.232,-0.17702 -0.57413,-0.71673 -0.76028,-1.19935 -0.30065,-0.77949 -0.33866,-1.23676 -0.34022,-4.09367 -0.002,-1.7689 -0.11207,-4.21862 -0.24688,-5.44383 -0.13484,-1.2252 -0.28143,-3.01528 -0.32576,-3.97794 -0.13908,-3.02006 -0.25682,-4.55397 -0.49932,-6.50504 -0.12924,-1.03985 -0.28367,-3.05525 -0.34316,-4.47869 l -0.10818,-2.58807 0.42699,-0.4142 c 0.7756,-0.75234 2.72233,-0.44597 4.02173,0.63293 0.84119,0.69846 1.35296,1.75372 1.91932,3.95772 0.53661,2.08831 0.50106,3.55737 -0.14533,6.00339 -0.40044,1.51537 -0.405,1.60429 -0.27722,5.41001 0.0714,2.12812 0.16979,4.01253 0.21853,4.18755 0.0488,0.17503 0.21845,0.67626 0.37717,1.11382 0.19647,0.54166 0.28944,1.27807 0.2913,2.30721 0.002,1.3517 -0.053,1.63789 -0.52454,2.70502 -1.02193,2.31284 -2.51257,3.27708 -3.68415,2.38314 z m -94.715602,-0.61771 c -1.362725,-0.95755 -2.965243,-3.97722 -4.061297,-7.6528 -0.247915,-0.8314 -0.552432,-1.61543 -0.676693,-1.74232 -0.197233,-0.2014 -0.418924,-0.19662 -1.745634,0.0377 -0.835836,0.14753 -1.936668,0.30929 -2.44629,0.35947 -0.598923,0.059 -1.023187,0.19472 -1.199756,0.38397 -0.330405,0.35416 -0.703087,1.65609 -0.662324,2.31379 0.03664,0.591 -0.516874,2.10185 -0.926128,2.52795 -0.167245,0.17414 -0.304087,0.36604 -0.304087,0.42642 0,0.22719 -0.980657,0.49271 -1.450252,0.39266 -0.669695,-0.14268 -2.353114,-1.3076 -2.956891,-2.04617 -0.548217,-0.67056 -0.781613,-1.66975 -0.604262,-2.58679 0.06082,-0.31461 0.403853,-1.29963 0.762244,-2.18892 1.164095,-2.88861 2.281135,-7.99204 2.861496,-13.07344 0.08263,-0.72346 0.307032,-1.30155 0.926489,-2.38677 0.449588,-0.78763 0.931969,-1.87778 1.071953,-2.42254 0.280404,-1.09125 0.250521,-1.31661 -0.522684,-3.94217 -0.40541,-1.37664 -0.719199,-3.81495 -0.609824,-4.73867 0.02884,-0.24344 0.330988,-0.72657 0.671753,-1.07405 0.536102,-0.54666 0.715039,-0.63157 1.33113,-0.63157 1.620882,0 2.901639,1.07897 3.447592,2.90441 0.479739,1.60403 0.972826,2.94998 1.353623,3.69488 0.423277,0.82804 0.916388,2.50574 1.030099,3.50471 0.116748,1.02564 0.303423,2.04201 0.701417,3.81884 0.61247,2.73435 0.74349,3.10157 2.185838,6.12605 0.883847,1.85335 1.233886,2.91946 1.436724,4.37584 0.495015,3.55416 0.963285,5.17103 2.130219,7.35533 0.517378,0.96844 0.996559,2.52628 0.996559,3.23983 0,0.89236 -0.529107,2.68334 -0.910741,3.08279 -0.503361,0.52686 -1.02098,0.51036 -1.830273,-0.0583 z M 63.29778,261.65171 c 0.142711,-0.0531 0.259472,-0.22963 0.259472,-0.39223 0,-0.39828 -0.429421,-1.60972 -0.982975,-2.77311 -0.249839,-0.5251 -0.739801,-1.59913 -1.0888,-2.38677 l -0.634534,-1.43206 -0.1088,0.79559 c -0.05982,0.43757 -0.115259,1.47124 -0.123164,2.29704 -0.0078,0.8258 -0.131944,1.9562 -0.275643,2.512 -0.371372,1.43645 -0.336189,1.47613 1.308941,1.47613 0.762319,0 1.502795,-0.0435 1.645503,-0.0966 z M 46.825599,275.5788 c -0.405992,-0.0726 -1.328693,-0.21097 -2.050446,-0.30744 -2.657598,-0.35517 -4.899009,-1.13808 -6.561436,-2.29185 -0.451096,-0.31307 -1.427891,-1.15547 -2.170649,-1.87199 -1.267984,-1.22322 -1.40239,-1.42003 -2.20051,-3.22268 -0.729926,-1.64862 -0.863605,-2.11105 -0.946032,-3.27243 -0.121436,-1.71106 0.07366,-3.88979 0.479027,-5.34981 0.333771,-1.20214 0.940946,-2.19157 2.764667,-4.50524 2.060595,-2.61419 2.42875,-2.97525 3.432382,-3.36611 0.515691,-0.20085 1.277677,-0.56601 1.693303,-0.8115 0.41562,-0.24549 1.301414,-0.6732 1.968429,-0.95047 1.881632,-0.78218 3.574465,-0.64359 6.707944,0.5491 2.722986,1.03647 3.253241,2.04948 1.807067,3.45229 -0.785647,0.7621 -1.611433,0.9174 -3.509936,0.66006 -3.409815,-0.46218 -4.515113,-0.0333 -6.180038,2.39819 -0.355824,0.51965 -0.646953,0.97627 -0.646953,1.01475 0,0.0754 -0.965578,1.4346 -1.575828,2.21823 -0.62159,0.7982 -0.758723,1.78886 -0.54839,3.96157 0.199993,2.06593 0.551837,2.96865 1.35632,3.47998 0.216588,0.13766 0.496422,0.34471 0.621856,0.46013 0.125434,0.11543 0.523323,0.42183 0.884201,0.68092 0.360882,0.25905 0.914504,0.71019 1.23027,1.00253 1.125366,1.0418 1.729491,1.27823 3.772827,1.47641 2.270985,0.22026 3.028603,0.5218 3.65121,1.4532 0.95869,1.4342 0.361429,2.57967 -1.593424,3.05601 -1.146798,0.27943 -1.278766,0.28419 -2.385861,0.0862 z M 23.188001,250.83975 c -0.894001,-0.26711 -1.536164,-0.84216 -1.797203,-1.60941 -0.299073,-0.87905 -0.129143,-5.07629 0.23404,-5.78062 0.684468,-1.32741 1.892601,-1.69382 3.672205,-1.11371 0.608352,0.19832 1.143004,0.40472 1.188112,0.45868 0.04513,0.0539 0.348689,0.22939 0.674617,0.38985 1.041636,0.5128 2.230544,1.64552 2.532715,2.41304 0.380977,0.96767 0.24375,1.60121 -0.647158,2.98777 -0.834731,1.29912 -1.603288,2.08429 -2.283788,2.33315 -0.644609,0.23575 -2.670368,0.1911 -3.57354,-0.0787 z m 139.200819,-4.26987 c -1.46078,-0.34598 -2.18578,-1.08672 -2.46213,-2.51551 -0.14082,-0.72829 0.20072,-4.46414 0.45998,-5.03067 0.74656,-1.63159 2.31747,-1.85107 4.75804,-0.66478 2.24642,1.09191 3.5595,2.50792 3.5595,3.83853 0,0.56684 -1.15235,2.59463 -1.95858,3.44651 -0.99899,1.05553 -2.48031,1.37034 -4.35681,0.92592 z M 88.244638,224.87509 c -0.541312,-0.0205 -1.796193,-0.11316 -2.788608,-0.20576 -0.992413,-0.0926 -2.156205,-0.20016 -2.586192,-0.23902 -1.333004,-0.12045 -6.584609,-1.3265 -7.584026,-1.7417 -0.270656,-0.11243 -0.898098,-0.36318 -1.394303,-0.55721 -1.329444,-0.51983 -4.03566,-1.95165 -5.201633,-2.7521 -3.930982,-2.69864 -6.916902,-6.03607 -8.573712,-9.58305 -0.610703,-1.30742 -1.436103,-1.99112 -2.959192,-2.45117 -0.675063,-0.20392 -1.467965,-0.5455 -1.762002,-0.75908 -0.498542,-0.36212 -3.028244,-3.92586 -3.431949,-4.83478 -0.244253,-0.54993 -1.26181,-4.31078 -1.697964,-6.2756 -0.194263,-0.87515 -0.640444,-2.80845 -0.991506,-4.29619 -0.351062,-1.48776 -0.71657,-3.20622 -0.812233,-3.81882 -0.09566,-0.61262 -0.240867,-1.36444 -0.32268,-1.67076 -0.08181,-0.30629 -0.184666,-0.8572 -0.228555,-1.22422 -0.07856,-0.65705 -0.279462,-1.76584 -0.945769,-5.22006 -0.699664,-3.62716 -0.699007,-4.07317 0.0063,-4.29032 0.54114,-0.16661 1.114794,0.23506 1.563006,1.09437 0.236956,0.4543 0.459956,0.96541 0.495562,1.13582 0.03559,0.17041 0.215187,0.84686 0.399072,1.50323 0.18388,0.65635 0.380127,1.51559 0.436104,1.90942 0.468525,3.2963 1.134648,6.4446 1.727316,8.16384 0.26569,0.77073 0.483483,1.48678 0.483992,1.59119 0.0043,0.92082 0.777154,1.96507 1.171237,1.5828 0.300292,-0.29129 0.174195,-6.17873 -0.185019,-8.63879 -0.184823,-1.26569 -0.376209,-2.62348 -0.425306,-3.01729 -0.0491,-0.39381 -0.232497,-1.24863 -0.407567,-1.8996 -0.184511,-0.68608 -0.318302,-1.70907 -0.318302,-2.43379 0,-1.1236 0.04178,-1.29075 0.412823,-1.65065 0.813964,-0.78956 1.759392,-0.0459 1.971896,1.55122 0.07404,0.55649 0.156885,1.1192 0.184097,1.25046 0.295003,1.42342 0.788927,4.02742 1.131805,5.96692 0.232071,1.31274 0.492828,2.69448 0.579464,3.07058 0.08664,0.37608 0.295561,1.45012 0.464276,2.38676 0.454499,2.52321 0.865774,3.24203 1.587472,2.7746 0.568563,-0.36826 0.639612,-0.88517 0.650319,-4.73134 0.01444,-5.17868 -0.150611,-7.00752 -0.861509,-9.54707 -0.617237,-2.20499 -0.679818,-3.02188 -0.287842,-3.75716 0.33253,-0.62375 0.903915,-0.60351 1.627392,0.0576 0.541036,0.49445 0.580249,0.60789 0.893742,2.58567 0.406785,2.56637 1.126524,8.76703 1.154348,9.94487 0.01135,0.48134 0.08528,1.12577 0.164251,1.43207 0.07897,0.3063 0.192187,1.02232 0.251606,1.59117 0.143531,1.37408 0.401143,2.06854 0.767357,2.06854 0.926112,0 1.243051,-2.44292 0.976969,-7.53028 -0.169056,-3.2322 -0.705925,-8.19818 -0.923166,-8.53915 -0.215219,-0.33779 -0.109569,-2.08651 0.149203,-2.46961 0.301583,-0.44647 1.07751,-0.54382 1.393233,-0.17481 0.178355,0.20846 0.466144,1.69617 1.419272,7.33691 0.221817,1.31272 0.544751,3.17441 0.717631,4.13707 0.172881,0.96267 0.361968,2.07252 0.420184,2.46632 0.05822,0.39383 0.251141,1.46786 0.428702,2.38678 0.177568,0.9189 0.358769,1.95715 0.402676,2.30721 0.04389,0.35007 0.18257,1.17349 0.308134,1.82986 0.225103,1.17666 0.545097,6.81538 0.454909,8.01608 -0.06209,0.82656 -0.647244,2.48853 -1.01525,2.88351 -0.585105,0.62797 -1.152881,1.96014 -1.152881,2.705 0,1.6631 2.448665,4.92018 5.147442,6.84686 0.552145,0.39419 1.151534,0.82886 1.331974,0.96596 0.180443,0.13709 1.28768,0.70332 2.460536,1.25831 2.115562,1.00106 3.750717,1.55601 5.163665,1.75252 0.404082,0.0562 0.790546,0.13566 0.858813,0.17658 0.518785,0.31101 6.411813,0.84704 9.314871,0.84728 2.44476,1.6e-4 7.13884,-0.36514 8.85794,-0.6894 0.67664,-0.12764 1.525527,-0.27452 1.886407,-0.32643 1.4205,-0.20429 3.34643,-0.60848 4.67501,-0.98113 0.76687,-0.21509 1.8003,-0.50254 2.29651,-0.63879 2.40519,-0.6604 6.14623,-2.0852 8.52987,-3.24866 1.43136,-0.69867 3.29341,-1.71756 3.69081,-2.0196 0.0902,-0.0685 0.4962,-0.33312 0.90218,-0.58791 1.00367,-0.62986 3.01024,-2.19756 4.07291,-3.18212 1.29554,-1.20029 1.58454,-1.81609 1.57493,-3.35582 -0.007,-1.23554 -0.0372,-1.32907 -1.00453,-3.183 -1.31962,-2.52919 -1.90462,-4.5029 -2.18118,-7.35903 -0.20048,-2.07041 0.11759,-4.11661 0.92784,-5.9691 2.05584,-4.7002 5.52154,-8.42591 10.59062,-11.38512 1.51064,-0.88187 2.11423,-1.14815 3.87924,-1.71135 4.59561,-1.46639 7.82291,1.24544 9.10336,7.6493 0.85059,4.25403 1.03436,6.0818 0.89589,8.91061 -0.25017,5.11084 -1.93631,8.6784 -5.91972,12.52501 -2.43232,2.34879 -4.91099,3.72206 -7.08099,3.92312 -1.63745,0.15172 -2.41458,0.70337 -6.30812,4.47776 -1.3194,1.27903 -2.87871,2.63969 -3.46514,3.0237 -0.58643,0.38402 -1.21386,0.83148 -1.3943,0.99435 -0.78419,0.70788 -5.35649,3.21187 -7.70968,4.22215 -1.91985,0.82425 -6.06982,2.34272 -6.82376,2.49684 -0.14427,0.0295 -1.28842,0.33906 -2.54255,0.68796 -1.25413,0.34889 -2.57549,0.67956 -2.93637,0.73481 -0.36088,0.0553 -0.91451,0.16667 -1.23028,0.24759 -0.31575,0.0809 -0.83247,0.18878 -1.14825,0.23969 -0.31577,0.0509 -1.34919,0.23322 -2.2965,0.40509 -0.947307,0.17187 -2.165277,0.34514 -2.706597,0.38505 -0.54131,0.0399 -1.79618,0.1449 -2.788603,0.23333 -1.954779,0.17418 -4.989773,0.27272 -6.561426,0.21303 z m 6.807822,-13.84838 c -0.951379,-1.00339 -4.26527,-5.621 -4.26527,-5.94326 0,-0.0806 -0.173813,-0.41372 -0.386252,-0.74017 -0.212447,-0.32644 -0.399003,-0.64647 -0.414572,-0.71119 -0.06907,-0.28705 -0.263558,-0.75914 -0.779107,-1.89133 -0.303893,-0.66738 -0.552529,-1.26519 -0.552529,-1.32846 0,-0.0634 -0.103796,-0.34068 -0.230656,-0.61645 -0.315605,-0.68604 -0.810611,-2.40035 -1.27045,-4.39979 -0.314991,-1.36963 -0.384346,-2.12959 -0.384771,-4.21663 -4.94e-4,-2.29418 0.03799,-2.64423 0.388603,-3.54051 0.630204,-1.61081 1.894574,-2.56249 3.123145,-2.35073 1.342018,0.23131 2.777177,1.57037 5.263637,4.91114 0.985555,1.32418 1.049405,1.34759 2.460535,0.90235 1.65043,-0.52076 4.250197,-0.91964 6.012317,-0.92247 1.68806,-0.004 1.9272,0.035 2.79685,0.44172 1.43634,0.67169 2.23509,2.03875 2.23214,3.82043 -0.002,1.16811 -0.81415,3.75238 -1.68389,5.35774 -1.82686,3.37196 -5.07487,7.27982 -8.389027,10.09328 -3.004201,2.55032 -2.669859,2.45358 -3.920703,1.13433 z"
       id="path4542"
       inkscape:connector-curvature="0"
       sodipodi:nodetypes="ccsccccscccccccccccccccccccccccccccccccccccsccsccccccccssccscccccsscccccscscscccccccsccsccccccscccccccccccccccccccccccccccccscccccccccsccccsccsccsscccccccccccssccccccsccccccccccsccccccccccccccccccccccscsscccccsccsccccccsccscccccsccccccccccccccccccccccccccsccccccccccccscccccscscssccsccccsccccscccccccccccccccsccccsccccscccscccccccccscccscccscccccscsccccccccccsccccccccccccccsccccccsccccccccsccccccccsccccscccccsccsccccscccccccsccsscscccccsccccscscsccscccscccsccccscccccccccccccccscsccccccccscsccccccccccccccccscccccccccccccccccccsccccccccccscccscscsccccsccccccscsccscccscccccccscscscccccscccccscccccccssccccsccccccccscccccccccscscccscccssscccccscccsscccssccccscsscsccccccsccccccssccsssscccccccccscccccssccscscscccccccsc" />
  </g>
</svg>
