<?xml version="1.0" encoding="UTF-8" standalone="no"?>
<!-- Created with Inkscape (http://www.inkscape.org/) -->

<svg
   xmlns:dc="http://purl.org/dc/elements/1.1/"
   xmlns:cc="http://creativecommons.org/ns#"
   xmlns:rdf="http://www.w3.org/1999/02/22-rdf-syntax-ns#"
   xmlns:svg="http://www.w3.org/2000/svg"
   xmlns="http://www.w3.org/2000/svg"
   xmlns:sodipodi="http://sodipodi.sourceforge.net/DTD/sodipodi-0.dtd"
   xmlns:inkscape="http://www.inkscape.org/namespaces/inkscape"
   width="200mm"
   height="175mm"
   viewBox="0 0 200 175"
   version="1.1"
   id="svg8"
   inkscape:version="0.92.4 (5da689c313, 2019-01-14)"
   sodipodi:docname="wine.svg">
  <defs
     id="defs2" />
  <sodipodi:namedview
     id="base"
     pagecolor="#ffffff"
     bordercolor="#666666"
     borderopacity="1.0"
     inkscape:pageopacity="0.0"
     inkscape:pageshadow="2"
     inkscape:zoom="0.7"
     inkscape:cx="-171.56715"
     inkscape:cy="376.66834"
     inkscape:document-units="mm"
     inkscape:current-layer="layer1"
     showgrid="false"
     inkscape:window-width="1920"
     inkscape:window-height="1017"
     inkscape:window-x="-8"
     inkscape:window-y="-8"
     inkscape:window-maximized="1" />
  <metadata
     id="metadata5">
    <rdf:RDF>
      <cc:Work
         rdf:about="">
        <dc:format>image/svg+xml</dc:format>
        <dc:type
           rdf:resource="http://purl.org/dc/dcmitype/StillImage" />
        <dc:title></dc:title>
      </cc:Work>
    </rdf:RDF>
  </metadata>
  <g
     inkscape:label="Layer 1"
     inkscape:groupmode="layer"
     id="layer1"
     transform="translate(0,-122)">
    <g
       id="g858"
       style="fill:#ffffff"
       transform="matrix(-0.45465854,0,0,0.47805556,127.44976,64.175093)">
      <path
         sodipodi:nodetypes="ccsscccccscsccscccccccccccscccccccscsccsccscccccccscsccc"
         inkscape:connector-curvature="0"
         id="path830"
         d="m -116.53406,486.0934 c -20.11337,-2.85482 -27.89052,-9.36998 -20.79865,-17.42371 3.70623,-4.20891 16.97878,-9.9185 23.05662,-9.9185 2.68215,0 3.58552,-3.26958 4.91098,-17.7746 1.55053,-16.9679 1.62243,-23.32432 0.28448,-25.14874 -0.60006,-0.81821 -4.13605,-2.12485 -8.91322,-3.29359 -17.61849,-4.31043 -29.62829,-12.93792 -36.02603,-25.88009 -3.98631,-8.06398 -5.53301,-15.20367 -5.55083,-25.62284 -0.0341,-19.88725 7.39317,-53.78143 15.16066,-69.18688 4.27506,-8.47878 -0.97257,-7.67937 50.408837,-7.67937 39.62053,0 45.19588,0.14812 46.76216,1.24196 5.45973,3.81305 14.16054,30.66211 18.02983,55.63677 1.60617,10.36711 1.83207,28.09894 0.43279,33.96926 -0.56964,2.38969 -2.46126,7.33074 -4.20362,10.9801 -6.32768,13.25335 -18.27161,22.06172 -35.88797,26.46653 -8.70701,2.1771 -10.70048,3.64431 -10.68919,7.86737 0.012,4.23679 3.03315,34.79888 3.58167,36.2241 0.57635,1.49757 0.86049,1.60894 8.54298,3.34811 12.48137,2.82558 21.61569,10.05827 19.88268,15.74338 -1.32103,4.33353 -6.24009,7.11337 -16.51617,9.33346 -9.34162,2.01825 -41.322267,2.69925 -52.468037,1.11728 z m 46.921857,-9.18081 c 5.12424,-0.87347 9.8311,-2.01377 10.45976,-2.53398 2.30768,-1.90966 -3.81704,-4.88348 -14.31883,-6.95244 -5.31385,-1.04689 -9.49339,-4.19194 -10.79346,-8.12198 -0.85836,-2.59466 -4.01419,-33.78942 -4.01419,-39.67926 0,-4.16066 2.88405,-9.70799 6.21718,-11.95844 1.39365,-0.94097 5.80904,-2.46272 9.81199,-3.38171 20.77486,-4.76939 33.22994,-17.29086 35.5893,-35.77905 1.9576,-15.33976 -3.81793,-47.83812 -12.25113,-68.93598 l -2.52615,-6.31987 -41.7701,-0.20452 -41.770127,-0.20453 -1.25633,1.91184 c -1.68971,2.57134 -6.17058,15.6488 -8.6756,25.31975 -5.37495,20.75094 -7.43798,43.25117 -4.87757,53.19735 4.5206,17.56081 16.44561,27.53696 37.98579,31.77793 4.96784,0.97808 9.21505,3.97542 11.28282,7.96242 1.553517,2.99548 1.445627,11.82938 -0.37257,30.50015 -1.65339,16.9784 -2.41914,19.16111 -7.74966,22.08967 -1.6556,0.90959 -4.79285,1.90179 -6.97161,2.20489 -4.8712,0.67765 -13.07269,4.21504 -13.07269,5.63838 0,4.40859 39.837597,6.74821 59.073177,3.46928 z m -38.869927,-75.07887 c -25.9215,-3.45734 -39.5954,-20.03861 -38.07886,-46.17521 0.66664,-11.48975 1.43772,-14.55563 4.30509,-17.11788 3.05018,-2.72554 7.99723,-3.35285 22.15305,-2.80912 15.40281,0.59169 27.100557,4.21233 41.271377,12.77413 9.24359,5.58486 20.16647,7.4648 27.78988,4.78292 4.64314,-1.63344 6.5678,-1.48909 8.57699,0.64341 1.43647,1.52462 1.72268,2.76495 1.72268,7.46592 0,11.36121 -3.40686,20.14791 -10.81427,27.89124 -8.69986,9.09441 -18.92425,12.52548 -38.70345,12.9879 -6.97208,0.16303 -15.172217,-0.0365 -18.222487,-0.44331 z"
         style="fill:#ffffff;stroke-width:0.79113191" />
      <path
         sodipodi:nodetypes="cccccccccscccscscscsccccccccccccccsccssccccc"
         inkscape:connector-curvature="0"
         id="path830-5"
         d="m 177.32291,486.55951 c -6.75422,-0.41989 -13.58434,-1.10895 -15.17805,-1.53128 -4.96115,-1.31466 -10.21555,-5.48603 -12.88137,-10.22617 l -2.44351,-4.34491 -0.24374,-68.72848 c -0.1635,-46.12037 0.044,-71.58693 0.63117,-77.41825 2.43817,-24.21788 9.63724,-43.94236 23.78712,-65.17356 7.68897,-11.53687 11.17367,-18.51386 13.6124,-27.25439 1.57501,-5.64488 1.75521,-8.04948 1.6872,-22.5145 -0.0419,-8.90703 -0.67865,-29.26017 -1.41511,-45.22919 -1.47047,-31.88467 -1.4244,-32.47008 2.94495,-37.43206 4.49118,-5.10031 5.6127,-5.37344 23.32236,-5.67946 19.20992,-0.33195 22.95858,0.39783 27.43789,5.34147 4.56028,5.03304 4.66422,6.2054 3.2367,36.5064 -1.88306,39.96988 -1.89483,61.24954 -0.0378,68.21738 2.16157,8.11015 6.52772,16.89823 13.93327,28.04435 13.99077,21.05758 21.41228,41.47555 23.79146,65.45476 0.48316,4.86939 0.81172,35.27052 0.81172,75.10243 0,73.1461 0.0995,71.4648 -4.60891,77.94117 -3.50636,4.82304 -9.20136,7.47519 -17.84014,8.30815 -10.97368,1.0581 -66.59437,1.48352 -80.54778,0.61614 z m 94.28171,-106.95032 v -38.31416 h -58.23284 -58.23281 v 38.31416 38.31412 h 58.23281 58.23284 z m -46.74472,-162.39936 5.94214,-3.66069 0.56533,-10.97787 c 0.31089,-6.03787 1.11332,-23.5262 1.78313,-38.86304 1.35777,-31.08979 1.30908,-31.53569 -3.63106,-33.25283 -3.32805,-1.1568 -28.96725,-1.1568 -32.29529,0 -5.04659,1.75414 -5.07752,2.05259 -3.65902,35.30549 0.69875,16.38034 1.5193,33.85982 1.82344,38.84335 l 0.55298,9.06098 8.66289,5.33077 8.66285,5.33079 2.82525,-1.72816 c 1.55389,-0.95046 5.49918,-3.37544 8.76736,-5.38879 z"
         style="fill:#ffffff;stroke-width:0.79113191" />
    </g>
  </g>
</svg>
